<svg width="74" height="74" viewBox="0 0 74 74" fill="none" xmlns="http://www.w3.org/2000/svg">
<path d="M2 1H1V2V72V73H2H72H73V72V5C73 2.79086 71.2091 1 69 1H2Z" stroke="#C1E1FF" stroke-width="2"/>
<path d="M19.4 7.5C19 8.3 19.6 10.2 20.6 11.7L22.4 14.5L19 11.7C15.8 8.9 12 8.4 11.3 10.6C11.1 11.3 13.4 14.8 16.5 18.4C19.6 22 21.8 25 21.5 25C21.1 25 18.9 23.4 16.6 21.5C8.3 14.7 5.9 18 13.4 25.9C18.1 30.8 18.3 31.1 15.2 29.6C13.4 28.7 11.5 28.2 11 28.5C9.5 29.4 9.8 31.6 11.5 33C12.3 33.7 13 35 13 36C13 37 14.3 38.3 16 39C17.7 39.7 19.3 40.6 19.6 41.1C19.8 41.6 18.4 41.2 16.4 40.4C12.1 38.6 7.5 38.9 7.5 41C7.5 41.9 10.7 44.1 14.9 46.3C19 48.4 22.5 50.2 22.7 50.4C22.9 50.6 20.1 50 16.5 49.2C11.4 48 9.7 47.9 8.8 48.8C6.9 50.7 9.9 52.9 17.7 55.7C22.4 57.4 23.4 58 21 57.7C16.8 57.2 15 57.7 15 59.4C15 61 18 62.4 25 63.9C28 64.6 33.7 66 37.5 67.1C45.8 69.3 56.4 70.4 55.5 69C55.2 68.4 53.2 68 51.2 68C49.2 68 45 67.3 42 66.4C39 65.5 32.5 63.9 27.5 62.8C15.9 60.3 14.2 58.7 23.9 59.6C33.7 60.5 33.3 58.3 23.2 55.9C15.3 53.9 9.7 51.4 10.4 50.1C10.7 49.6 15.1 50.3 20.1 51.6C25.1 52.9 29.7 54 30.3 54C32.9 54 27.5 50.5 18.9 46.6C10.1 42.6 6.8 40 10.5 40C11.4 40 16.4 41.7 21.5 43.9C26.8 46.1 31.3 47.4 32 47C34.1 45.7 32.4 44.5 23 40.5C16.8 38 14.2 36.4 14.9 35.7C16.1 34.5 26.7 37 34.5 40.5C37.6 41.8 41.7 43.2 43.8 43.5L47.5 44L44.6 42.6C40.8 40.9 36 34.4 36 31.1C36 28.7 36.7 29.2 42.8 35.6C46.5 39.4 50.6 43.5 52 44.6C53.4 45.6 55.5 47.9 56.8 49.6C58.7 52.3 66.6 56.8 67.6 55.7C67.8 55.5 65.1 52.3 61.6 48.5C56.7 43.3 55 40.6 54.6 37.7C54.2 35.6 52.9 31.7 51.5 29.1C50.2 26.5 48.3 21.3 47.3 17.5C45.4 10.4 44 8.9 41.4 11.1C40.2 12.1 39.9 13.8 40.2 18.3L40.6 24.2L33.1 16.2C24 6.6 20.6 4.4 19.4 7.5ZM32.6 17.7C37.7 23 41.6 27.8 41.3 28.4C40.9 29.2 41.1 29.2 41.8 28.5C42.6 27.7 42.6 25.7 41.8 20.7C40.9 14.9 40.9 13.7 42.2 12.4C43.6 11 43.9 11.5 45.5 17.7C46.5 21.4 48.6 26.7 50.1 29.5C51.6 32.2 53.2 36.3 53.5 38.5C54 40.9 55.5 43.9 57.4 46C61.6 50.6 63.4 53 62.6 53C62.3 53 56.2 47.1 49.1 39.9C37.1 27.7 36.1 26.9 35.1 28.9C34.2 30.5 34.3 31.8 35.4 34.4C36.2 36.2 37.3 38.1 37.9 38.4C40.1 39.8 39 40.9 36.5 40C28.5 36.9 22.8 33.4 16.8 27.6C10.5 21.7 8.7 19 10.8 19C11.3 19 14.9 21.7 18.8 25C22.8 28.3 26.2 31 26.5 31C28.3 31 26.1 27.5 20 20.7C13.3 13.2 11.6 10 14.3 10C14.9 10 19 13.6 23.2 18C27.6 22.6 31.1 25.6 31.5 25C32.1 24 30.5 21.8 22.3 12.1C19.6 9 19.5 8 21.7 8C22.6 8 27.5 12.3 32.6 17.7ZM24.5 16.5C23.6 16.2 24.5 16.5 23 16C23 16 23 16 24.5 16.5ZM16.3 31.5C21.1 33.5 21.6 34.7 17.5 34.2C15.6 34 13.4 32.9 12.4 31.9C10.3 29.6 11.5 29.5 16.3 31.5Z" fill="#C1E1FF"/>
</svg>
