<svg width="74" height="74" viewBox="0 0 74 74" fill="none" xmlns="http://www.w3.org/2000/svg">
<path d="M73 2V1H72H5C2.79086 1 1 2.79086 1 5V72V73H2H72H73V72V2Z" fill="#25445F"/>
<path d="M73 2V1H72H5C2.79086 1 1 2.79086 1 5V72V73H2H72H73V72V2Z" stroke="#C1E1FF" stroke-width="2"/>
<path d="M22.3002 8.7C21.9002 9.6 22.4002 11.6 23.3002 13.2C24.2002 14.7 24.8002 16 24.6002 16C24.4002 16 22.7002 14.4 20.7002 12.5C16.7002 8.6 15.8002 8.3 13.6002 10.5C11.6002 12.5 12.3002 14.2 18.3002 21.7C21.0002 25.2 22.9002 28 22.6002 28C22.2002 28 20.0002 26.2 17.5002 23.9C12.8002 19.5 9.70022 19.1 9.20022 22.7C9.00022 24.3 10.4002 26.6 14.1002 30.5C19.4002 36.2 19.8002 37.2 15.4002 34.3C13.1002 32.9 12.7002 32.8 11.3002 34.2C9.20022 36.3 10.5002 38.4 17.7002 44.6C20.9002 47.4 26.2002 52.3 29.5002 55.5C35.7002 61.4 43.1002 67 44.8002 67C45.3002 67 46.5002 68.1 47.4002 69.5C48.3002 70.9 49.6002 72 50.2002 72C50.8002 72 50.5002 71.1 49.5002 70C48.5002 68.9 47.9002 67.8 48.1002 67.6C48.3002 67.5 49.4002 66.8 50.5002 66.1C52.3002 65.1 52.1002 65 49.3002 65.5C45.1002 66.3 41.8002 64.5 33.9002 57.1C30.4002 53.9 24.0002 48.1 19.8002 44.4C12.8002 38.2 10.4002 35 12.8002 35C14.0002 35 25.4002 43 25.8002 44.1C26.0002 44.6 26.6002 45 27.1002 45C29.6002 45 27.2002 41.6 19.0002 33.3C12.5002 26.9 10.1002 23.8 10.6002 22.7C11.4002 20.4 13.0002 21.4 22.0002 29.9C26.8002 34.4 29.8002 36.6 30.4002 36C31.0002 35.4 30.8002 34.6 29.8002 33.8C27.0002 31.6 13.9002 13.7 14.3002 12.7C15.2002 10 17.6002 11.2 22.7002 16.6C25.7002 19.9 29.6002 24.6 31.4002 27.2C34.0002 31 34.9002 31.7 36.3002 30.8C37.9002 30 37.6002 29.3 33.7002 24.7C28.2002 18.2 23.0002 11 23.0002 9.8C23.0002 5.7 35.1002 15.8 41.6002 25.4C43.0002 27.4 44.5002 29 45.0002 29C47.2002 29 48.0002 32.8 46.5002 36.4C44.8002 40.5 44.7002 41 45.9002 41C47.9002 41 49.9002 28 48.5002 24.6C47.3002 21.9 49.2002 15.6 51.3002 15.2C52.5002 15 53.0002 15.5 53.0002 16.9C53.0002 20.2 56.9002 33.6 59.7002 39.6C62.2002 45.1 62.5002 50.4 60.6002 55.5C59.8002 57.5 59.8002 57.5 61.4002 55.5C63.0002 53.6 63.1002 53.7 67.0002 58C69.3002 60.7 70.9002 61.9 71.0002 61C71.0002 60.1 69.2002 57.6 67.0002 55.5C63.6002 52.2 63.0002 51 63.0002 47.4C63.0002 45.1 61.9002 40.9 60.6002 38C59.3002 35.1 57.1002 28.3 55.8002 22.9C54.1002 15.5 53.1002 13 51.9002 13C48.8002 13 47.0002 16.4 46.9002 22.6V28.5L43.2002 24.1C41.2002 21.7 36.7002 16.8 33.3002 13.3C27.0002 6.9 23.5002 5.5 22.3002 8.7Z" fill="#C1E1FF"/>
</svg>
