<svg width="74" height="74" viewBox="0 0 74 74" fill="none" xmlns="http://www.w3.org/2000/svg">
<path d="M2 1H1V2V69C1 71.2091 2.79086 73 5 73H72H73V72V2V1H72H2Z" fill="#25445F"/>
<path d="M2 1H1V2V69C1 71.2091 2.79086 73 5 73H72H73V72V2V1H72H2Z" stroke="#C1E1FF" stroke-width="2"/>
<path d="M32.8187 4.10856C33.4346 5.35536 34.0505 7.73562 34.0505 9.54916C34.0505 11.2493 34.5432 14.5364 35.1591 16.6899C36.8836 22.6973 38.2385 35.5053 37.0067 34.4852C36.3908 33.9185 35.0359 27.1178 33.8041 19.4102C32.6955 11.5894 31.4638 4.90198 31.0942 4.4486C30.501 3.99995 29.501 3.49995 29.001 5.49995C27.8786 7.59793 29.4929 30.1781 31.0942 35.052C31.4638 36.1854 31.2174 37.0922 30.4783 37.0922C29.7393 37.0922 29.1234 36.1854 29.0002 35.052C28.6307 25.7576 27.5009 6.49995 24.8122 7.05555C22.0009 6.99995 22.2255 16.6899 23.2109 28.7046C24.0731 39.1324 24.4644 43.1535 22.0009 41C21.8524 40.8702 21.7618 40.6408 21.5009 39.5C21.4188 39.1408 21.9789 18.1765 19.0009 17.5C15.4789 17.6765 17.3924 40.792 18.501 48.4995C18.501 53.4995 21.001 58.2778 28.5009 60.5C30.1152 60.5145 32.4492 60.4414 30.8479 56.8144C27.6187 49.5 27.1137 45 31.5869 53.9807C32.9419 56.701 33.0009 58.2065 33.0009 59C33.0009 60.0201 35.449 60.3184 40.5009 60C44.441 59.7516 48.4977 57.8951 49.5009 57C50.5041 56.1048 52.5155 51.8674 53.5009 44.5C53.8704 41.3263 54.7443 34.2585 55.7297 32.785C57.331 30.5181 57.331 30.2914 55.1138 30.2914C52.4039 30.2914 49.8172 33.6918 47.8463 40.0392C46.9841 42.8728 45.2596 45.1397 43.412 46.0465C41.8106 46.8399 39.7166 48.8801 38.8544 50.5803L37.2531 53.5273L36.7604 50.6937C36.3908 48.8801 37.0067 47.52 38.3617 46.7266C44.8901 43.2129 45.1364 42.7595 43.1656 34.8253C42.1802 30.7448 41.0716 25.6443 40.7021 23.4907C40.3325 21.3371 39.7166 18.7302 39.3471 17.8234C38.9776 16.9166 38.3617 14.083 38.1153 11.5894C37.869 9.09578 37.5009 7.49995 36.2677 5.72618C35.5009 4.49995 31.5009 3.99995 36.2677 4.2219C37.0067 4.2219 38.2385 6.14878 38.8544 8.4157C40.5789 14.6497 43.6583 27.7978 44.5205 33.3518C45.506 39.1324 46.6146 39.4725 48.2159 34.5986C49.5708 30.4048 55.3601 26.7777 57.4542 28.7046C58.3164 29.498 58.1932 31.0849 56.8383 34.0319C55.8529 36.2988 54.9906 40.2659 54.9906 42.8728C54.9906 45.3664 53.3921 50.2205 53.0198 53.754C52.2203 61.3427 41.3303 60.9343 32.7563 61.3877C24.3326 61.8331 18.3019 57.4604 17.501 53.5269C16.0799 40.9455 16.4357 42.9092 16.0004 28.7046C15.5652 14.5 17.7044 15.7832 19.5156 15.7832C21.0009 16 21.5009 21 21.6096 13.4029C21.1169 8.4157 23.501 5.99995 24.8122 5.94595C27.501 5.99995 26.9944 9.79811 28.501 3.49995C29.001 1.99995 31.3406 1.7283 32.8187 4.10856Z" fill="#C1E1FF"/>
<path d="M15.731 56.2135C15.262 55.4413 14.5907 54.8377 13.7261 54.4019C12.8635 53.9638 11.8431 53.75 10.6738 53.75H5H4.75V54V68.2188V68.4688H5H8.42773H8.67773V68.2188V63.6445H10.6738C11.8401 63.6445 12.8573 63.4513 13.7178 63.0552L13.7186 63.0549C14.5829 62.6533 15.2561 62.0902 15.7274 61.3625C16.1996 60.6334 16.4316 59.7841 16.4316 58.8242C16.4316 57.852 16.2 56.9792 15.731 56.2135ZM15.731 56.2135C15.7311 56.2137 15.7312 56.2139 15.7313 56.214L15.5176 56.3438L15.7308 56.2132C15.7308 56.2133 15.7309 56.2134 15.731 56.2135ZM10.6738 60.498H8.67773V56.8965H10.6738C11.1207 56.8965 11.4569 56.9931 11.7029 57.1642L11.7029 57.1642L11.706 57.1663C11.9648 57.3407 12.151 57.5688 12.2688 57.855L12.2688 57.855L12.2704 57.8588C12.3991 58.1571 12.4648 58.4844 12.4648 58.8438C12.4648 59.1748 12.4 59.4653 12.2754 59.7203L12.2754 59.7203L12.2744 59.7224C12.1621 59.9577 11.9831 60.1447 11.7263 60.2843C11.4755 60.4206 11.1301 60.498 10.6738 60.498ZM23.5172 59.5477L20.8511 53.8934L20.7835 53.75H20.625H16.9824H16.5727L16.7601 54.1144L21.8531 64.0136L21.7176 64.3948L21.7175 64.3948L21.7154 64.401C21.6231 64.6841 21.5156 64.9075 21.3967 65.0773L21.3958 65.0788C21.295 65.2249 21.1556 65.3388 20.9688 65.4194C20.7828 65.4931 20.5103 65.5371 20.1367 65.5371H20.1363H20.136H20.1356H20.1352H20.1348H20.1344H20.134H20.1336H20.1332H20.1329H20.1325H20.1321H20.1317H20.1313H20.1309H20.1305H20.1301H20.1297H20.1293H20.1289H20.1285H20.1281H20.1277H20.1273H20.1269H20.1265H20.1261H20.1257H20.1252H20.1248H20.1244H20.124H20.1236H20.1232H20.1228H20.1224H20.1219H20.1215H20.1211H20.1207H20.1203H20.1198H20.1194H20.119H20.1186H20.1181H20.1177H20.1173H20.1169H20.1164H20.116H20.1156H20.1151H20.1147H20.1143H20.1138H20.1134H20.113H20.1125H20.1121H20.1116H20.1112H20.1108H20.1103H20.1099H20.1094H20.109H20.1085H20.1081H20.1076H20.1072H20.1067H20.1063H20.1058H20.1054H20.1049H20.1045H20.104H20.1036H20.1031H20.1026H20.1022H20.1017H20.1013H20.1008H20.1003H20.0999H20.0994H20.0989H20.0985H20.098H20.0975H20.0971H20.0966H20.0961H20.0956H20.0952H20.0947H20.0942H20.0937H20.0933H20.0928H20.0923H20.0918H20.0913H20.0908H20.0904H20.0899H20.0894H20.0889H20.0884H20.0879H20.0874H20.0869H20.0864H20.086H20.0855H20.085H20.0845H20.084H20.0835H20.083H20.0825H20.082H20.0815H20.081H20.0805H20.08H20.0794H20.0789H20.0784H20.0779H20.0774H20.0769H20.0764H20.0759H20.0754H20.0749H20.0743H20.0738H20.0733H20.0728H20.0723H20.0717H20.0712H20.0707H20.0702H20.0697H20.0691H20.0686H20.0681H20.0675H20.067H20.0665H20.066H20.0654H20.0649H20.0644H20.0638H20.0633H20.0627H20.0622H20.0617H20.0611H20.0606H20.06H20.0595H20.059H20.0584H20.0579H20.0573H20.0568H20.0562H20.0557H20.0551H20.0546H20.054H20.0535H20.0529H20.0524H20.0518H20.0512H20.0507H20.0501H20.0496H20.049H20.0484H20.0479H20.0473H20.0468H20.0462H20.0456H20.0451H20.0445H20.0439H20.0433H20.0428H20.0422H20.0416H20.0411H20.0405H20.0399H20.0393H20.0387H20.0382H20.0376H20.037H20.0364H20.0358H20.0353H20.0347H20.0341H20.0335H20.0329H20.0323H20.0317H20.0311H20.0305H20.03H20.0294H20.0288H20.0282H20.0276H20.027H20.0264H20.0258H20.0252H20.0246H20.024H20.0234H20.0228H20.0222H20.0215H20.0209H20.0203H20.0197H20.0191H20.0185H20.0179H20.0173H20.0167H20.016H20.0154H20.0148H20.0142H20.0136H20.0129H20.0123H20.0117H20.0111H20.0105H20.0098H20.0092H20.0086H20.008H20.0073H20.0067H20.0061H20.0054H20.0048H20.0042H20.0035H20.0029H20.0023H20.0016H20.001H20.0003H19.9997H19.9991H19.9984H19.9978H19.9971H19.9965H19.9958H19.9952H19.9945H19.9939H19.9932H19.9926H19.9919H19.9913H19.9906H19.99H19.9893H19.9887H19.988H19.9873H19.9867H19.986H19.9854H19.9847H19.984H19.9834H19.9827H19.982H19.9814H19.9807H19.98H19.9794H19.9787H19.978H19.9773H19.9767H19.976H19.9753H19.9746H19.974H19.9733H19.9726H19.9719H19.9712H19.9706H19.9699H19.9692H19.9685H19.9678H19.9671H19.9664H19.9657H19.9651H19.9644H19.9637H19.963H19.9623H19.9616H19.9609H19.9602H19.9595H19.9588H19.9581H19.9574H19.9567H19.956H19.9553H19.9546H19.9539H19.9532H19.9525H19.9517H19.951H19.9503H19.9496H19.9489H19.9482H19.9475H19.9468H19.946H19.9453H19.9446H19.9439H19.9432H19.9424H19.9417H19.941H19.9403H19.9395H19.9388H19.9381H19.9374H19.9366H19.9359H19.9352H19.9344H19.9337H19.933H19.9322H19.9315H19.9308H19.93H19.9293H19.9285H19.9278H19.9271H19.9263H19.9256H19.9248H19.9241H19.9233H19.9226H19.9218H19.9211H19.9203H19.9196H19.9188H19.9181H19.9173H19.9166H19.9158H19.915H19.9143H19.9135H19.9128H19.912H19.9112H19.9105H19.9097H19.9089H19.9082H19.9074H19.9066H19.9059H19.9051H19.9043H19.9036H19.9028H19.902H19.9012H19.9005H19.8997H19.8989H19.8981H19.8973H19.8966H19.8958H19.895H19.8942H19.8934H19.8926H19.8919H19.8911H19.8903H19.8895H19.8887H19.8879H19.8871H19.8863H19.8855H19.8847H19.8839H19.8831H19.8823H19.8815H19.8807H19.8799H19.8791H19.8783H19.8775H19.8767H19.8759H19.8751H19.8743H19.8735H19.8727H19.8719H19.8711H19.8703H19.8694H19.8686H19.8678H19.867H19.8662H19.8654H19.8645H19.8637H19.8629H19.8621H19.8612H19.8604H19.8596H19.8588H19.8579H19.8571H19.8563H19.8555H19.8546H19.8538H19.853H19.8521H19.8513H19.8504H19.8496H19.8488H19.8479H19.8471H19.8463H19.8454H19.8446H19.8437H19.8429H19.842H19.8412H19.8403H19.8395H19.8386H19.8378H19.8369H19.8361H19.8352H19.8344H19.8335H19.8327H19.8318H19.8309H19.8301H19.8292H19.8284H19.8275H19.8266H19.8258H19.8249H19.824H19.8232H19.8223H19.8214H19.8206H19.82C19.6791 65.5308 19.5811 65.5188 19.5191 65.5044L19.2059 65.4322L19.213 65.7536L19.2715 68.4098L19.2767 68.6439L19.5106 68.6541C19.664 68.6607 19.8422 68.664 20.0449 68.6641C20.2531 68.6705 20.4304 68.6738 20.5762 68.6738C21.1855 68.6738 21.7285 68.5859 22.1998 68.403C22.6623 68.2235 23.0668 67.9768 23.4104 67.6615C23.7529 67.3531 24.0474 67.0003 24.2936 66.6039C24.5412 66.2156 24.7586 65.8074 24.9458 65.3795L24.9469 65.3771L29.7418 54.0978L29.8896 53.75H29.5117H25.8887H25.7161L25.6549 53.9113L23.5172 59.5477ZM34.332 54V53.75H34.082H30.6641H30.4141V54V68.2188V68.4688H30.6641H34.082H34.332V68.2188V62.8438H35.5695L38.5101 68.3367L38.5807 68.4688H38.7305H42.1516H42.5098H42.7734H43.205H46.1914H46.3759L46.4303 68.2925L47.1958 65.8125H51.5227L52.2905 68.2927L52.345 68.4688H52.5293H56.2207H56.5796L56.4552 68.1321L51.2013 53.9133L51.1409 53.75H50.9668H50.355H50.0684H48.6035H48.3131H47.7344H47.5599L47.4997 53.9138L42.563 67.3491L38.6736 60.5661L42.5001 54.1277L42.7246 53.75H42.2852H38.1445H37.9897L37.9207 53.8887L35.2553 59.248H34.332V54ZM50.5487 62.666H48.1672L49.3562 58.8141L50.5487 62.666ZM69.5762 54V53.75H69.3262H69.0234H68.9814L68.9416 53.7638L62.7111 55.922L62.543 55.9802V56.1582V58.6582V58.9917L62.8631 58.8982L65.7852 58.0444V68.2188V68.4688H66.0352H69.3262H69.5762V68.2188V54Z" fill="#C1E1FF" stroke="#C1E1FF" stroke-width="0.5"/>
</svg>
