<svg width="74" height="74" viewBox="0 0 74 74" fill="none" xmlns="http://www.w3.org/2000/svg">
<path d="M2 1H1V2V72V73H2H69C71.2091 73 73 71.2091 73 69V2V1H72H2Z" stroke="#C1E1FF" stroke-width="2"/>
<path d="M19.0737 65.8161C19.1008 65.818 19.1292 65.8196 19.159 65.8209H19.467C19.8403 65.8209 20.1359 65.776 20.3537 65.6862C20.5714 65.5899 20.7426 65.4487 20.867 65.2626C20.9977 65.0701 21.1097 64.8262 21.203 64.531L19.0737 65.8161ZM19.0737 65.8161L19.0729 65.7771L18.823 65.7824L18.7651 66.0256C18.7852 66.0304 18.8063 66.0348 18.8284 66.0388L18.879 68.4007C19.0221 68.4072 19.1901 68.4104 19.383 68.4104C19.5821 68.4168 19.7501 68.42 19.887 68.42C20.447 68.42 20.9354 68.3366 21.3523 68.1697C21.7692 68.0029 22.1301 67.775 22.435 67.4863L19.0737 65.8161ZM23.8444 65.3204C23.6702 65.7311 23.4679 66.1226 23.2377 66.4948L23.8444 65.3204ZM23.8444 65.3204L28.3241 54.4521L23.8444 65.3204ZM66.9487 62.3173C67.3596 61.8478 67.7094 61.389 67.9971 60.9407L67.9979 60.9393C68.2876 60.4812 68.5115 60.0169 68.6679 59.5465C68.8259 59.0711 68.9047 58.5759 68.9047 58.0622C68.9047 57.1753 68.7236 56.4021 68.3492 55.7534C67.9797 55.0958 67.4292 54.5964 66.7082 54.2553C65.9873 53.9143 65.1082 53.75 64.0812 53.75C63.0847 53.75 62.1967 53.9739 61.4254 54.4293C60.661 54.8742 60.0601 55.473 59.6272 56.2239L59.6264 56.2253C59.1995 56.9772 58.9871 57.8062 58.9871 58.7072V58.9572H59.2371H62.3919H62.6419V58.7072C62.6419 58.3171 62.7028 57.9739 62.8199 57.6741C62.9431 57.3743 63.109 57.149 63.3126 56.9874C63.509 56.8316 63.7367 56.7528 64.0066 56.7528C64.2938 56.7528 64.5143 56.8152 64.6826 56.9244L64.6853 56.9261C64.8596 57.0359 64.9961 57.2005 65.0909 57.4343L65.0909 57.4343L65.0936 57.4407C65.1938 57.6691 65.2499 57.9692 65.2499 58.351C65.2499 58.55 65.2028 58.7856 65.0982 59.0613L65.0981 59.0613L65.0966 59.0657C64.9993 59.3372 64.8386 59.6499 64.6092 60.0049C64.3806 60.3522 64.0775 60.7498 63.6979 61.1984L59.3334 65.9306L59.2671 66.0024V66.1001V68.2179V68.4679H59.5171H69H69.25V68.2179V65.715V65.465H69H64.1791L65.5825 63.7944C66.0928 63.2742 66.5483 62.7818 66.9487 62.3173ZM66.9487 62.3173C66.9489 62.317 66.9491 62.3168 66.9493 62.3166L66.76 62.1534L66.9481 62.318C66.9483 62.3178 66.9485 62.3175 66.9487 62.3173ZM8.52607 68.2179V63.7125H10.4228C11.5396 63.7125 12.5145 63.5217 13.3394 63.13L13.3402 63.1297C14.1686 62.7328 14.8132 62.1763 15.2639 61.4585C15.7154 60.7395 15.9369 59.9028 15.9369 58.9575C15.9369 58 15.7157 57.1401 15.2674 56.3851C14.8189 55.6235 14.1764 55.0273 13.3478 54.5966C12.5207 54.1634 11.5427 53.9521 10.4228 53.9521H5H4.75V54.2021V68.2179V68.4679H5H8.27607H8.52607V68.2179ZM10.4228 60.6038H8.52607V57.0608H10.4228C10.8469 57.0608 11.1647 57.1553 11.3971 57.322L11.3971 57.322L11.4001 57.3242C11.6457 57.4948 11.8232 57.7186 11.936 58.0009L11.9359 58.0009L11.9375 58.0047C12.0606 58.2989 12.1235 58.622 12.1235 58.9767C12.1235 59.3037 12.0614 59.5905 11.9422 59.8419L11.9422 59.8419L11.9413 59.844C11.834 60.0759 11.6635 60.2589 11.4206 60.3951C11.1837 60.5278 10.8568 60.6038 10.4228 60.6038ZM22.6967 59.6445L20.161 54.0982L20.0942 53.9521H19.9336H16.4522H16.0482L16.2285 54.3137L21.0966 64.0725L20.9666 64.4496L20.9666 64.4495L20.9646 64.4557C20.8763 64.7349 20.7736 64.9551 20.6601 65.1222L20.6592 65.1237C20.5633 65.267 20.4313 65.3779 20.2555 65.4562C20.0804 65.5278 19.8226 65.5709 19.467 65.5709H19.4666H19.4662H19.4659H19.4655H19.4651H19.4648H19.4644H19.464H19.4636H19.4633H19.4629H19.4625H19.4622H19.4618H19.4614H19.461H19.4606H19.4603H19.4599H19.4595H19.4591H19.4587H19.4583H19.458H19.4576H19.4572H19.4568H19.4564H19.456H19.4556H19.4552H19.4548H19.4544H19.454H19.4536H19.4532H19.4528H19.4524H19.452H19.4516H19.4512H19.4508H19.4504H19.45H19.4496H19.4492H19.4488H19.4484H19.448H19.4476H19.4472H19.4468H19.4463H19.4459H19.4455H19.4451H19.4447H19.4443H19.4438H19.4434H19.443H19.4426H19.4422H19.4417H19.4413H19.4409H19.4405H19.44H19.4396H19.4392H19.4387H19.4383H19.4379H19.4375H19.437H19.4366H19.4362H19.4357H19.4353H19.4348H19.4344H19.434H19.4335H19.4331H19.4326H19.4322H19.4317H19.4313H19.4309H19.4304H19.43H19.4295H19.4291H19.4286H19.4282H19.4277H19.4272H19.4268H19.4263H19.4259H19.4254H19.425H19.4245H19.424H19.4236H19.4231H19.4227H19.4222H19.4217H19.4213H19.4208H19.4203H19.4199H19.4194H19.4189H19.4184H19.418H19.4175H19.417H19.4166H19.4161H19.4156H19.4151H19.4146H19.4142H19.4137H19.4132H19.4127H19.4122H19.4117H19.4113H19.4108H19.4103H19.4098H19.4093H19.4088H19.4083H19.4078H19.4073H19.4069H19.4064H19.4059H19.4054H19.4049H19.4044H19.4039H19.4034H19.4029H19.4024H19.4019H19.4014H19.4009H19.4004H19.3998H19.3993H19.3988H19.3983H19.3978H19.3973H19.3968H19.3963H19.3958H19.3952H19.3947H19.3942H19.3937H19.3932H19.3927H19.3921H19.3916H19.3911H19.3906H19.39H19.3895H19.389H19.3885H19.3879H19.3874H19.3869H19.3863H19.3858H19.3853H19.3847H19.3842H19.3837H19.3831H19.3826H19.3821H19.3815H19.381H19.3804H19.3799H19.3794H19.3788H19.3783H19.3777H19.3772H19.3766H19.3761H19.3755H19.375H19.3744H19.3739H19.3733H19.3728H19.3722H19.3717H19.3711H19.3706H19.37H19.3694H19.3689H19.3683H19.3677H19.3672H19.3666H19.3661H19.3655H19.3649H19.3644H19.3638H19.3632H19.3626H19.3621H19.3615H19.3609H19.3604H19.3598H19.3592H19.3586H19.358H19.3575H19.3569H19.3563H19.3557H19.3551H19.3546H19.354H19.3534H19.3528H19.3522H19.3516H19.351H19.3505H19.3499H19.3493H19.3487H19.3481H19.3475H19.3469H19.3463H19.3457H19.3451H19.3445H19.3439H19.3433H19.3427H19.3421H19.3415H19.3409H19.3403H19.3397H19.3391H19.3385H19.3378H19.3372H19.3366H19.336H19.3354H19.3348H19.3342H19.3336H19.3329H19.3323H19.3317H19.3311H19.3305H19.3298H19.3292H19.3286H19.328H19.3273H19.3267H19.3261H19.3255H19.3248H19.3242H19.3236H19.3229H19.3223H19.3217H19.321H19.3204H19.3198H19.3191H19.3185H19.3179H19.3172H19.3166H19.3159H19.3153H19.3146H19.314H19.3134H19.3127H19.3121H19.3114H19.3108H19.3101H19.3095H19.3088H19.3082H19.3075H19.3069H19.3062H19.3055H19.3049H19.3042H19.3036H19.3029H19.3022H19.3016H19.3009H19.3003H19.2996H19.2989H19.2983H19.2976H19.2969H19.2962H19.2956H19.2949H19.2942H19.2936H19.2929H19.2922H19.2915H19.2909H19.2902H19.2895H19.2888H19.2881H19.2875H19.2868H19.2861H19.2854H19.2847H19.284H19.2833H19.2827H19.282H19.2813H19.2806H19.2799H19.2792H19.2785H19.2778H19.2771H19.2764H19.2757H19.275H19.2743H19.2736H19.2729H19.2722H19.2715H19.2708H19.2701H19.2694H19.2687H19.268H19.2673H19.2666H19.2659H19.2652H19.2644H19.2637H19.263H19.2623H19.2616H19.2609H19.2602H19.2594H19.2587H19.258H19.2573H19.2565H19.2558H19.2551H19.2544H19.2537H19.2529H19.2522H19.2515H19.2507H19.25H19.2493H19.2485H19.2478H19.2471H19.2463H19.2456H19.2449H19.2441H19.2434H19.2426H19.2419H19.2412H19.2404H19.2397H19.2389H19.2382H19.2374H19.2367H19.2359H19.2352H19.2344H19.2337H19.2329H19.2322H19.2314H19.2307H19.2299H19.2292H19.2284H19.2277H19.2269H19.2261H19.2254H19.2246H19.2238H19.2231H19.2223H19.2216H19.2208H19.22H19.2193H19.2185H19.2177H19.2169H19.2162H19.2154H19.2146H19.2138H19.2131H19.2123H19.2115H19.2107H19.21H19.2092H19.2084H19.2076H19.2068H19.206H19.2053H19.2045H19.2037H19.2029H19.2021H19.2013H19.2005H19.1997H19.1989H19.1981H19.1974H19.1966H19.1958H19.195H19.1942H19.1934H19.1926H19.1918H19.191H19.1902H19.1894H19.1886H19.1877H19.1869H19.1861H19.1853H19.1845H19.1837H19.1829H19.1821H19.1813H19.1805H19.1796H19.1788H19.178H19.1772H19.1764H19.1755H19.1747H19.1739H19.1731H19.1723H19.1714H19.1706H19.1698H19.169H19.1681H19.1673H19.1665H19.1656H19.1648H19.1647C19.0307 65.5647 18.9385 65.553 18.8808 65.5392L18.5661 65.4643L18.573 65.7878L18.629 68.4061L18.634 68.64L18.8678 68.6505C19.0146 68.6571 19.1852 68.6603 19.3789 68.6604C19.5779 68.6668 19.7474 68.67 19.887 68.67C20.4712 68.67 20.9925 68.583 21.4452 68.4018C21.889 68.2242 22.2769 67.9802 22.606 67.6686C22.934 67.3641 23.2157 67.0159 23.4512 66.6249C23.6879 66.2421 23.8957 65.8397 24.0746 65.418L24.0755 65.4156L28.6583 54.2974L28.8006 53.9521H28.4272H24.9644H24.79L24.7298 54.1159L22.6967 59.6445ZM33.0452 54.2021V53.9521H32.7952H29.5285H29.2785V54.2021V68.2179V68.4679H29.5285H32.7952H33.0452V68.2179V62.9232H34.2081L37.0161 68.333L37.0861 68.4679H37.238H40.4956H40.8501H41.1021H41.5271H44.3688H44.555L44.6083 68.2895L45.3386 65.8495H49.4544L50.1868 68.2897L50.2403 68.4679H50.4263H53.9544H54.3095L54.1897 68.1335L49.1683 54.1178L49.1089 53.9521H48.9329H48.3597H48.0742H46.6742H46.3851H45.8435H45.6672L45.608 54.1182L40.8985 67.3371L37.1943 60.6745L40.852 54.327L41.068 53.9521H40.6354H36.678H36.521L36.4528 54.0936L33.9076 59.3717H33.0452V54.2021ZM48.5213 62.7408H46.2691L47.3936 58.9838L48.5213 62.7408Z" fill="#C1E1FF" stroke="#C1E1FF" stroke-width="0.5"/>
<path d="M41.1247 3.76212C40.5088 5.00893 39.8929 7.38919 39.8929 9.20272C39.8929 10.9029 39.4002 14.1899 38.7843 16.3435C37.0598 22.3508 35.7049 35.1589 36.9366 34.1388C37.5525 33.5721 38.9075 26.7713 40.1392 19.0638C41.2478 11.2429 42.4796 4.55555 42.8491 4.10216C43.4424 3.65352 44.4424 3.15352 44.9424 5.15352C46.0648 7.25149 44.4504 29.8317 42.8491 34.7055C42.4796 35.839 42.726 36.7458 43.465 36.7458C44.2041 36.7458 44.82 35.839 44.9431 34.7055C45.3127 25.4112 46.4425 6.15352 49.1312 6.70911C51.9425 6.65352 51.7179 16.3435 50.7325 28.3582C49.8702 38.786 49.4789 42.8071 51.9425 40.6535C52.0909 40.5237 52.1816 40.2944 52.4425 39.1535C52.5246 38.7944 51.9644 17.8301 54.9425 17.1535C58.4644 17.3301 56.551 40.4456 55.4424 48.1531C55.4424 53.1531 52.9424 57.9314 45.4425 60.1535C43.8281 60.168 41.4942 60.095 43.0955 56.4679C46.3247 49.1535 46.8296 44.6535 42.3564 53.6343C41.0015 56.3546 40.9425 57.8601 40.9425 58.6535C40.9425 59.6736 38.4944 59.9719 33.4425 59.6535C29.5023 59.4052 25.4457 57.5487 24.4425 56.6535C23.4392 55.7583 21.4279 51.521 20.4425 44.1535C20.0729 40.9798 19.1991 33.9121 18.2137 32.4386C16.6124 30.1717 16.6124 29.945 18.8296 29.945C21.5395 29.945 24.1262 33.3454 26.097 39.6927C26.9593 42.5264 28.6838 44.7933 30.5314 45.7001C32.1327 46.4935 34.2267 48.5337 35.089 50.2339L36.6903 53.1809L37.183 50.3472C37.5525 48.5337 36.9366 47.1736 35.5817 46.3801C29.0533 42.8664 28.8069 42.413 30.7778 34.4788C31.7632 30.3984 32.8718 25.2978 33.2413 23.1443C33.6108 20.9907 34.2267 18.3837 34.5963 17.477C34.9658 16.5702 35.5817 13.7366 35.828 11.2429C36.0744 8.74934 36.4425 7.15352 37.6757 5.37975C38.4425 4.15352 42.4425 3.65352 37.6757 3.87547C36.9366 3.87547 35.7049 5.80235 35.089 8.06926C33.3645 14.3033 30.2851 27.4514 29.4228 33.0053C28.4374 38.786 27.3288 39.126 25.7275 34.2521C24.3725 30.0584 18.5832 26.4313 16.4892 28.3582C15.627 29.1516 15.7501 30.7384 17.1051 33.6854C18.0905 35.9523 18.9527 39.9194 18.9527 42.5264C18.9527 45.02 20.5513 49.8741 20.9236 53.4076C21.7231 60.9962 32.613 60.5879 41.1871 61.0413C49.6108 61.4867 55.6414 57.1139 56.4424 53.1804C57.8635 40.5991 57.5076 42.5628 57.9429 28.3582C58.3782 14.1535 56.239 15.4367 54.4278 15.4367C52.9425 15.6535 52.4425 20.6535 52.3338 13.0565C52.8265 8.06926 50.4424 5.65352 49.1312 5.59952C46.4424 5.65352 46.9489 9.45168 45.4424 3.15352C44.9424 1.65352 42.6028 1.38186 41.1247 3.76212Z" fill="#C1E1FF"/>
</svg>
