<svg width="58" height="58" viewBox="0 0 58 58" fill="none" xmlns="http://www.w3.org/2000/svg">
<path d="M27.4786 41.3356C24.8446 38.8245 22.2328 37.1638 19.5508 36.2944C17.7906 35.7238 16.1748 35.4833 14.0994 35.483C12.5289 35.4828 11.0112 35.6214 9.33415 35.9183L8.91016 35.9933L8.93073 35.902C8.94205 35.8517 9.92338 32.1679 11.1115 27.7157L13.2716 19.6207L14.8288 18.6108C15.6853 18.0553 16.6654 17.4305 17.0068 17.2224C20.073 15.3532 22.0038 14.7276 23.2997 15.1834C23.5813 15.2824 23.7236 15.3597 23.9467 15.535C24.2995 15.8122 24.6481 16.2899 24.821 16.7333C24.8664 16.8498 24.8395 16.8294 24.7029 16.6441C23.8777 15.5242 22.6435 15.1988 20.9917 15.6655C20.5425 15.7924 20.039 15.997 19.352 16.3317C18.2784 16.8548 17.1526 17.5412 14.8957 19.0486L13.6705 19.8669L11.8226 27.1679C10.8063 31.1835 9.97444 34.5106 9.97412 34.5615C9.97339 34.6805 9.96381 34.6821 10.8656 34.4074C12.4147 33.9356 13.9184 33.628 15.4912 33.4613C16.2607 33.3797 18.3752 33.3791 19.0537 33.4603C22.3258 33.8517 24.6036 35.0901 26.078 37.2791C26.3542 37.6891 26.7557 38.4611 26.9355 38.9278C27.0347 39.1853 27.0731 39.2509 27.1247 39.2509C27.1834 39.2509 27.4527 38.3023 27.4729 37.9947C28.3746 37.3696 27.8741 39.8452 29.0606 39.2788C29.0816 39.2993 29.2815 39.2219 29.6325 39.0573C32.1381 37.8825 34.7392 37.242 38.1751 36.9539C39.0089 36.884 41.5494 36.8561 42.5414 36.906C43.8196 36.9702 45.0174 37.0838 46.1617 37.2493C46.8488 37.3487 46.8245 37.349 46.8245 37.2402C46.8245 37.1305 42.4862 19.9428 42.4462 19.8938C42.4299 19.8739 42.2387 19.8485 42.0111 19.836C41.1485 19.7886 40.4578 19.6536 39.5173 19.3484C38.7727 19.1068 38.1521 18.8535 36.7833 18.2325C35.0541 17.448 34.3964 17.1973 33.635 17.0322C33.1551 16.9282 32.2832 16.9272 31.9288 17.0303C31.8015 17.0674 31.6912 17.0917 31.6836 17.0844C31.6597 17.0611 32.086 16.8806 32.2929 16.8264C32.611 16.7431 33.1306 16.7298 33.5522 16.7943C34.2838 16.9061 35.0272 17.1721 36.833 17.9681C39.4631 19.1275 40.7483 19.5141 42.3545 19.6292L42.872 19.6663L43.2932 21.2518C43.5248 22.1238 44.5046 25.8324 45.4703 29.4932C46.4361 33.1539 47.3745 36.7049 47.5556 37.3841C47.7368 38.0634 47.885 38.6328 47.885 38.6494C47.885 38.6898 47.6388 38.7059 45.5818 38.8C43.6323 38.8891 42.681 38.9459 41.5222 39.0422C37.232 39.3988 33.4447 40.1605 29.3104 41.4982C28.6542 41.7105 28.1024 41.8836 28.0842 41.8828C28.066 41.882 27.7935 41.6357 27.4786 41.3356V41.3356Z" fill="#B82236"/>
<path d="M27.3902 38.1275C27.2923 37.8631 27.4754 37.1091 27.6871 36.7933C27.8744 36.514 28.0502 36.0782 28.1105 35.7436C28.1248 35.6644 28.2364 35.4157 28.3586 35.1908C28.6051 34.7371 28.6519 34.2581 28.4498 34.2581C28.3777 34.2581 28.3187 34.1431 28.3187 34.0025C28.3187 33.7814 28.4061 33.747 28.9665 33.747C29.4409 33.747 29.6602 33.6851 29.7856 33.516C29.8798 33.3889 30.2317 33.1022 30.5676 32.8789C31.0388 32.5655 31.1625 32.4139 31.1092 32.2152C31.0371 31.9466 31.3556 31.468 32.1942 30.5846C32.4445 30.3211 32.798 29.7892 32.9798 29.4027C33.1617 29.0161 33.3999 28.5413 33.5092 28.3475C33.6185 28.1536 33.6959 27.8949 33.6812 27.7725C33.6404 27.4324 33.8428 26.467 33.9712 26.3896C34.1656 26.2725 34.097 25.6103 33.8141 24.8731C33.6651 24.4849 33.5829 24.1046 33.6315 24.028C33.68 23.9515 33.5919 23.7727 33.4356 23.6308C33.0602 23.2897 32.9055 22.8651 32.9055 22.1751C32.9055 21.532 32.6478 21.421 32.1207 21.8371C31.5171 22.3137 31.8235 24.9174 32.4728 24.8286C32.6259 24.8077 32.7894 24.8508 32.8361 24.9245C32.8868 25.0045 32.786 25.0584 32.5856 25.0584C32.292 25.0584 32.2503 25.1121 32.2503 25.4899C32.2503 25.7273 32.1591 25.9952 32.0477 26.0854C31.9363 26.1755 31.8767 26.3294 31.9153 26.4274C31.9839 26.6017 31.4018 27.8694 31.2531 27.8694C31.2116 27.8694 31.0363 27.7609 30.8635 27.6284C30.5359 27.3772 30.5942 27.2397 31.1036 27.0627C31.4322 26.9485 31.0957 24.8665 30.6641 24.3438C30.6007 24.2671 30.5877 24.1665 30.6351 24.1202C30.6825 24.074 30.5788 24.0318 30.4046 24.0264C30.2304 24.021 29.97 23.9876 29.8258 23.9522C29.5152 23.8758 28.7063 23.8102 27.5324 23.7662C26.4689 23.7264 25.3183 23.2418 25.574 22.9414C25.673 22.8251 25.7873 22.7984 25.8789 22.8702C26.0811 23.0289 27.029 23.17 28.1221 23.204C28.6267 23.2197 29.2459 23.273 29.4982 23.3224C29.7504 23.3717 30.0453 23.4253 30.1534 23.4414C30.7857 23.5357 31.215 23.8612 31.3591 24.3556C31.4411 24.6367 31.5647 24.9242 31.6339 24.9945C31.8378 25.2018 31.6149 24.0568 31.3846 23.714C31.2721 23.5467 31.204 23.3064 31.2332 23.18C31.4663 22.1697 30.6827 21.778 28.9938 22.0606C27.2916 22.3454 25.8551 22.3661 25.6877 22.1082C25.4569 21.7527 25.55 21.5771 25.9396 21.6328C26.3737 21.695 26.4095 21.2398 26.0165 20.655C25.7692 20.2871 25.8769 20.0323 26.2329 20.1425C26.371 20.1852 26.4886 20.1732 26.4943 20.1157C26.5894 19.1539 26.555 18.8667 26.3171 18.6347C26.0477 18.3721 26.2466 18.0551 26.5451 18.2713C26.8044 18.4591 27.8077 18.6828 28.0519 18.6072C28.1871 18.5654 28.435 18.5054 28.6027 18.4739C28.7704 18.4424 28.9274 18.3586 28.9517 18.2876C29.0437 18.0184 29.2444 18.1786 29.5129 18.7356C29.9894 19.724 31.3259 20.2501 31.437 19.493C31.4949 19.0986 30.8212 18.4241 30.6563 18.7114C30.4288 19.1078 30.1423 18.9669 30.1763 18.4753C30.2422 17.5218 29.2444 17.0846 27.4669 17.288C27.0344 17.3374 26.4604 17.3216 26.1913 17.2528C25.3255 17.0314 24.7034 17.7255 24.8701 18.7271C24.911 18.9725 24.8736 19.4473 24.7872 19.7821C24.7007 20.1169 24.6005 20.938 24.5646 21.6066C24.5287 22.2753 24.4004 23.1673 24.2794 23.589C24.1086 24.1844 24.0578 24.9263 24.052 26.9111C24.0479 28.3166 24.0024 29.8466 23.9509 30.3111C23.8755 30.9912 23.8961 31.1871 24.0567 31.317C24.3006 31.5144 24.3185 31.8304 24.0857 31.8304C23.992 31.8304 23.8424 31.7592 23.7532 31.6723C23.5769 31.5004 22.6558 32.3195 22.5987 32.6991C22.5091 33.2942 20.4486 35.7373 20.1352 35.6201C19.8733 35.5221 19.9744 35.3045 20.6465 34.5202C20.9019 34.2222 21.1108 33.9283 21.1108 33.8671C21.1108 33.8059 21.2768 33.567 21.4797 33.3361C21.6826 33.1053 22.0292 32.6251 22.25 32.269C22.4709 31.9129 22.7963 31.4693 22.9733 31.2831C23.1502 31.0969 23.3034 30.8708 23.3136 30.7805C23.5321 28.8446 23.5765 28.2738 23.525 28.061C23.4173 27.6156 23.3668 24.3612 23.4655 24.2278C23.6031 24.042 23.8669 22.9931 23.8511 22.6945C23.8219 22.1418 23.9728 20.6233 24.105 20.1391C24.1818 19.858 24.2287 19.283 24.2093 18.8613C24.1346 17.2417 24.6511 16.7345 26.4086 16.7015C27.9063 16.6734 27.9252 16.659 27.9378 15.5317C27.9432 15.0439 28.0584 13.9836 28.1937 13.1754C28.329 12.3673 28.4526 11.4022 28.4684 11.0308C28.5163 9.90124 29.2065 9.46201 29.863 10.1433C30.2453 10.5401 30.5541 11.8748 30.4082 12.5C30.3462 12.7661 30.286 13.8462 30.2745 14.9004C30.2615 16.0915 30.2009 16.8494 30.1144 16.9026C29.9699 16.9915 30.2781 17.4423 31.0604 18.2864C32.0311 19.3336 32.0836 19.9868 31.2083 20.1233C30.5475 20.2263 29.7461 19.9281 29.3025 19.4141C28.5753 18.5714 28.1497 18.9168 28.128 20.3672C28.1093 21.6175 28.1093 21.6175 28.4433 21.5559C28.6271 21.5221 29.028 21.4575 29.3344 21.4124C29.8913 21.3305 29.8913 21.3305 29.8913 20.7573C29.8913 20.2792 29.9642 19.9498 30.1556 19.9882C30.3347 20.0242 30.3447 20.3927 30.3259 20.8075C30.3033 21.3069 30.3287 21.3473 30.7518 21.4835C30.9993 21.5631 31.2018 21.6813 31.2018 21.7462C31.2018 21.9837 31.5555 21.8553 31.7183 21.5587C32.0846 20.8914 33.4639 20.7822 33.2765 21.4353C33.2224 21.6239 33.4362 22.8984 33.5593 23.121C34.7553 25.2837 34.8609 26.2783 34.0705 27.9333C34.0034 28.0738 33.9264 28.304 33.8994 28.4449C33.7354 29.301 33.4995 29.8374 33.1267 30.2022C32.8938 30.4301 32.566 30.8337 32.3984 31.0991C32.2307 31.3644 32.0217 31.6519 31.934 31.7379C31.8462 31.8239 31.6135 32.1624 31.4168 32.4901C31.0187 33.1534 30.0803 34.0546 29.6486 34.1882C29.4917 34.2367 29.3298 34.4264 29.2817 34.6179C29.2344 34.8065 29.1606 34.9896 29.1176 35.0247C29.0404 35.0879 28.46 36.375 28.3974 36.6219C28.3796 36.6921 28.2662 36.9723 28.1453 37.2444C28.0244 37.5165 27.944 38.4318 27.944 38.486C27.944 38.6608 27.4505 38.2903 27.3902 38.1275ZM27.5547 21.2571C27.6457 19.3065 27.637 19.1808 27.4118 19.1808C27.2386 19.1808 27.1559 19.3927 27.0254 20.171C26.9341 20.7157 26.8327 21.2906 26.8002 21.4488C26.7493 21.6961 26.7963 21.7362 27.1367 21.7362C27.5026 21.7362 27.5341 21.7002 27.5547 21.2571ZM29.8258 13.7486C29.8258 10.4653 29.7883 10.2572 29.2022 10.2861C28.9493 10.2985 28.9084 10.3717 28.9084 10.8116C28.9084 11.2275 28.9512 11.3157 29.1378 11.2852C29.4492 11.2342 29.4311 11.5681 29.0986 12.0066C28.9509 12.2014 28.8055 12.55 28.7755 12.7814C28.7454 13.0127 28.6869 13.3062 28.6455 13.4335C28.6041 13.5608 28.6344 13.7037 28.7129 13.751C28.8039 13.8058 28.8109 13.8908 28.7323 13.9854C28.6644 14.067 28.5683 14.6499 28.5186 15.2808C28.469 15.9117 28.4002 16.4723 28.3658 16.5266C28.3314 16.5809 28.5391 16.6253 28.8274 16.6253C29.1158 16.6253 29.382 16.6732 29.4191 16.7318C29.755 17.2616 29.8258 16.7423 29.8258 13.7486ZM26.8771 33.0442C26.8771 32.9367 26.9941 32.8525 27.1436 32.8525C27.2901 32.8525 27.6958 32.7114 28.045 32.5388C28.7177 32.2065 28.8522 32.2154 28.7529 32.5855C28.6199 33.0815 26.8771 33.5077 26.8771 33.0442ZM28.2615 30.0735C28.3049 29.8802 28.3884 29.5723 28.4472 29.3891C28.5955 28.9267 28.3079 27.4861 28.0672 27.4861C27.6747 27.4861 27.3804 26.6826 27.6164 26.2553C27.8587 25.8166 27.8587 25.8166 27.4335 25.4921C27.1996 25.3136 27.0082 25.0837 27.0082 24.9812C27.0082 24.6674 27.3747 24.6361 27.7428 24.9184C28.1487 25.2296 29.5346 25.3054 29.7198 25.0264C29.7852 24.9279 29.8661 25.1361 29.9309 25.5695C30.0809 26.5731 30.0762 26.9658 29.9067 27.5857C29.6344 28.5817 29.9796 29.0722 30.5401 28.4856C30.8941 28.1152 30.9902 28.2427 30.7341 28.7431C30.0795 30.0224 29.1194 28.5384 29.5636 26.9338C29.7324 26.324 29.1559 25.5882 28.6558 25.7752C28.5425 25.8176 28.4498 25.9324 28.4498 26.0303C28.4498 26.1282 28.3971 26.2083 28.3327 26.2083C28.0263 26.2083 28.0853 26.6482 28.4495 27.079C28.6659 27.3349 28.8429 27.6421 28.8429 27.7616C28.8429 27.8811 28.9166 28.0549 29.0067 28.1477C29.0968 28.2406 29.1811 28.5178 29.1939 28.7638C29.2068 29.0098 29.2587 29.4041 29.3092 29.6401C29.3947 30.0398 29.3813 30.0631 29.1128 29.98C28.8882 29.9105 28.8087 29.9498 28.7529 30.1578C28.6362 30.5928 28.1632 30.5116 28.2615 30.0735Z" fill="#B82236"/>
<path d="M29.4101 16.69C29.3377 16.6444 29.1094 16.6065 28.9027 16.6058C28.6567 16.6049 28.5101 16.5617 28.4782 16.4806C28.4514 16.4125 28.4988 15.8638 28.5836 15.2612C28.6684 14.6587 28.7314 13.9731 28.7236 13.7378C28.704 13.1467 28.8582 12.5345 29.1573 12.0159C29.4686 11.4762 29.4746 11.318 29.1863 11.2475C28.9814 11.1974 28.9648 11.1592 28.9888 10.7966C29.0127 10.4382 29.0376 10.398 29.2506 10.374C29.6856 10.325 29.7145 10.4963 29.7465 13.3099C29.7743 15.7596 29.7316 16.7772 29.6013 16.7743C29.5685 16.7736 29.4825 16.7357 29.4101 16.69Z" fill="#F5D999"/>
<path d="M28.2466 21.5683C28.135 21.5343 28.116 21.3934 28.125 20.668C28.1294 20.3168 28.1335 20.1676 28.1428 20.0345C28.1868 19.3997 28.3281 19.0422 28.5615 18.9752C28.6046 18.9628 28.6745 18.9627 28.723 18.9749C28.8878 19.0166 29.0576 19.1448 29.2872 19.4009C29.432 19.5624 29.555 19.669 29.7165 19.773C29.8367 19.8505 29.9557 19.9134 30.0761 19.9632C30.0964 19.9716 30.1144 19.9797 30.1161 19.9813C30.1178 19.9828 30.1112 19.9852 30.1015 19.9865C30.0237 19.9969 29.961 20.0979 29.9273 20.2673C29.9015 20.3968 29.8946 20.4863 29.8901 20.7472C29.8857 21.0102 29.8838 21.0593 29.8763 21.1113C29.8646 21.1926 29.8437 21.2431 29.8073 21.2781C29.7826 21.3018 29.7767 21.3059 29.7436 21.3218C29.6727 21.3558 29.623 21.3657 29.1724 21.4353C28.833 21.4877 28.647 21.5177 28.4606 21.5504C28.316 21.5758 28.2812 21.5787 28.2466 21.5681V21.5683Z" fill="#F5D999"/>
<path d="M24.7804 57.2491C22.99 57.2213 22.743 57.2077 22.6229 57.131C22.5483 57.0834 22.4872 57.0161 22.4872 56.9815C22.4872 56.9469 22.3491 56.7194 22.1801 56.4759C21.7669 55.8802 21.7379 55.7838 21.7379 55.0069C21.7379 54.2299 21.7668 54.1335 22.1801 53.5378C22.3491 53.2943 22.4872 53.0668 22.4872 53.0322C22.4872 52.9976 22.5461 52.9317 22.6182 52.8857C22.7347 52.8113 23.094 52.7977 25.8834 52.7622C29.0239 52.7221 35.1447 52.7742 35.3187 52.8424C35.3696 52.8623 35.4596 52.9723 35.5187 53.0866C35.5778 53.2009 35.7289 53.4357 35.8544 53.6083C36.2071 54.0935 36.2523 54.2522 36.2523 55.0069C36.2523 55.7765 36.2192 55.8848 35.8007 56.4838C35.6409 56.7124 35.5102 56.9321 35.5102 56.9719C35.5102 57.0118 35.4517 57.0818 35.3801 57.1275C35.1592 57.2685 29.8979 57.3289 24.7804 57.2491ZM34.9227 56.7584C35.0514 56.7271 35.1486 56.6265 35.3974 56.266C35.7722 55.723 35.8405 55.4915 35.8095 54.8683C35.7838 54.3519 35.7318 54.2107 35.3953 53.742C35.2738 53.5727 35.1496 53.393 35.1193 53.3426C35.0684 53.2579 34.916 53.2476 33.1038 53.2056C31.0425 53.1578 23.4224 53.1987 23.1007 53.2592C22.9389 53.2897 22.8744 53.3497 22.631 53.6974C22.2456 54.2477 22.2325 54.2762 22.1802 54.682C22.1243 55.1159 22.1891 55.62 22.3339 55.8779C22.4325 56.0536 22.858 56.6692 22.9284 56.7381C22.9965 56.8047 25.5317 56.832 30.0582 56.8151C32.6447 56.8055 34.8337 56.7798 34.9227 56.7584ZM19.464 54.1746C19.4072 54.1499 19.0235 54.0015 18.6113 53.8449C13.2822 51.8198 8.62429 48.1347 5.40603 43.3975C2.83904 39.6188 1.34412 35.4857 0.851779 30.8059C0.743187 29.7735 0.726772 26.9257 0.823677 25.9455C1.17029 22.442 1.95518 19.5655 3.37997 16.5774C6.15091 10.7662 11.0993 5.94791 17.0609 3.25632C20.1169 1.87663 23.0656 1.11421 26.6473 0.777628C27.653 0.683149 30.575 0.69919 31.6343 0.805058C35.2473 1.1661 38.2343 1.98597 41.3757 3.47894C49.912 7.53581 55.7625 15.4404 57.0035 24.5938C57.3344 27.0342 57.3171 29.7923 56.9556 32.2328C55.7654 40.2675 50.9344 47.3963 43.7529 51.7148C41.9615 52.792 38.5754 54.3043 38.1744 54.2062C37.9752 54.1575 37.6755 53.874 37.5565 53.6219C37.4616 53.4209 37.4475 53.2781 37.4319 52.3627C37.422 51.7948 37.3987 51.3143 37.3795 51.2949C37.3604 51.2757 37.2518 51.2798 37.1381 51.3042C36.3927 51.4649 33.529 51.8029 31.7682 51.9379C30.2538 52.0541 26.9623 52.0162 25.407 51.8647C23.9622 51.724 22.3719 51.5277 21.4573 51.3772C21.0472 51.3097 20.6836 51.2546 20.6493 51.2546C20.6032 51.2546 20.5804 51.5293 20.5625 52.2997C20.5368 53.3989 20.5067 53.5649 20.2777 53.8653C20.044 54.1719 19.7317 54.2906 19.464 54.1746ZM20.0071 53.8346C20.2691 53.5793 20.364 53.2764 20.2531 53.0497C20.0911 52.7186 19.2139 52.3841 17.2656 51.9102C16.6841 51.7688 16.1122 51.6181 15.9947 51.5752C15.546 51.4114 15.2044 50.998 15.2017 50.6155C15.2017 50.5272 15.2583 50.2779 15.3289 50.0615C15.4776 49.6052 15.8899 47.445 15.9758 46.6713C16.0082 46.3804 16.0576 46.0096 16.086 45.8472C16.1347 45.5677 16.131 45.5477 16.0177 45.4707C15.6773 45.2393 14.587 44.3528 14.0706 43.8878C12.1962 42.1996 10.53 40.0331 9.37118 37.7772C8.2829 35.6587 7.5836 33.4172 7.23589 30.9327C7.10002 29.9615 7.04524 27.5597 7.135 26.5091C7.81894 18.5043 12.9579 11.6084 20.5559 8.49993C22.6105 7.65936 24.9169 7.11602 27.2256 6.92864C28.3036 6.84116 30.7681 6.89466 31.7645 7.02701C37.5834 7.80051 42.5403 10.5299 46.1855 14.9677C47.7542 16.8775 48.981 19.0982 49.8017 21.5133C50.2986 22.9758 50.5892 24.2434 50.7888 25.8196C50.9214 26.8667 50.9223 29.5717 50.7888 30.6039C50.2465 34.8474 48.7242 38.392 46.0299 41.685C45.329 42.5416 43.6181 44.1993 42.7029 44.9085C42.2276 45.2768 41.9744 45.5053 41.9919 45.5499C42.0316 45.6507 42.1106 46.1857 42.1502 46.6209C42.2022 47.1928 42.683 49.7175 42.7911 49.9861C43.0092 50.528 42.9692 50.9151 42.6634 51.222C42.4181 51.4681 42.133 51.5786 41.0806 51.8353C38.8624 52.3765 38.0051 52.6972 37.8416 53.0469C37.6997 53.3506 37.8268 53.7675 38.1179 53.9535C38.2471 54.036 38.2691 54.0324 38.7793 53.8489C45.3652 51.4789 50.9167 46.6117 54.0891 40.4259C56.8824 34.9794 57.7202 28.8288 56.487 22.8228C55.5665 18.3397 53.524 14.2238 50.4133 10.5838C49.7134 9.76481 48.041 8.12826 47.188 7.4277C40.1143 1.61772 30.9375 -0.449011 21.9948 1.75392C20.1467 2.2092 18.47 2.81932 16.6203 3.7096C13.6705 5.12932 11.5211 6.63341 9.17584 8.91908C7.35745 10.6913 6.11965 12.2357 4.81426 14.3613C4.31555 15.1733 3.28737 17.2123 2.9221 18.1136C1.09677 22.6176 0.526622 27.452 1.24984 32.2917C1.82385 36.1325 3.32938 39.9584 5.56063 43.2464C7.70695 46.4091 10.2941 48.9305 13.5453 51.028C15.3691 52.2046 17.1287 53.0875 19.075 53.8025C19.4018 53.9226 19.7011 54.0217 19.74 54.0228C19.7788 54.0228 19.8984 53.9392 20.0057 53.8346H20.0071ZM32.6937 51.6637C35.9418 51.3373 37.6299 51.0645 38.8183 50.6739C39.9149 50.3135 41.2843 50.0009 42.1406 49.9154C42.3856 49.891 42.4869 49.8602 42.4869 49.8104C42.4869 49.7717 42.3814 49.1812 42.2526 48.4981C42.1238 47.815 41.9839 46.9488 41.9416 46.5733C41.8993 46.1978 41.8308 45.7752 41.7892 45.6341C41.5836 44.937 41.2193 44.8533 39.8317 45.1417C38.0203 45.5181 34.9349 45.8024 31.4018 45.9885C30.6059 46.0305 29.7688 46.0751 29.5414 46.0877C29.0929 46.1124 27.7742 46.0599 25.8205 45.9391C22.6008 45.7401 20.3331 45.4896 18.5279 45.1333C17.3037 44.9702 16.8106 44.9044 16.5316 45.2682C16.3501 45.5049 16.2996 45.6929 16.2084 46.4698C16.1297 47.1398 15.9804 48.0294 15.7479 49.2147C15.6826 49.5472 15.6389 49.8361 15.6505 49.8569C15.6622 49.8779 15.7349 49.8947 15.8121 49.8947C16.3522 49.8947 18.3301 50.3377 19.3865 50.6952C20.3287 51.0141 22.0064 51.3005 24.4418 51.5583C26.5538 51.7819 26.9794 51.8018 29.3347 51.787C31.2217 51.7754 31.7931 51.7541 32.6937 51.6637ZM30.9625 45.8137C34.7543 45.6233 37.8567 45.297 39.8318 44.8808C40.5047 44.7391 41.1079 44.7206 41.3846 44.8332C41.487 44.875 41.6465 44.9872 41.7389 45.0827C41.9069 45.2563 41.9069 45.2563 42.5974 44.7174C43.4896 44.021 44.6322 42.934 45.5819 41.8781C46.3358 41.04 46.6017 40.7138 46.7251 40.4762C46.761 40.4069 46.8806 40.2256 46.9908 40.0733C47.9102 38.8024 48.4585 37.792 49.2326 35.9432C49.598 35.0706 50.1093 33.3169 50.3387 32.1494C50.6093 30.7724 50.6734 30.0225 50.6731 28.2372C50.6728 26.9505 50.652 26.3885 50.585 25.87C50.4673 24.9589 50.2635 23.8799 50.0787 23.1884C49.9953 22.8765 49.9053 22.5307 49.8786 22.4199C49.623 21.3566 48.7379 19.2794 47.9685 17.9373C45.0372 12.8241 40.0223 9.08352 34.2344 7.69316C32.4521 7.26499 30.89 7.08309 29.0033 7.08388C27.2442 7.08388 26.0662 7.20118 24.4554 7.53398C19.2495 8.60948 14.5755 11.5754 11.4094 15.8124C10.1218 17.5356 8.92333 19.8393 8.29963 21.7903C7.58662 24.0208 7.2953 25.89 7.29424 28.2417C7.29424 30.0349 7.46972 31.5149 7.8867 33.2168C8.11317 34.1411 8.64088 35.7312 8.91691 36.321C8.95581 36.4041 9.00338 36.5231 9.0227 36.5854C9.04206 36.6477 9.07695 36.6987 9.10039 36.6987C9.12362 36.6987 9.1584 36.7611 9.1773 36.8372C9.22511 37.0295 9.66447 37.9507 9.79562 38.1335C9.85497 38.2163 9.94054 38.3638 9.9858 38.4613C10.1733 38.8653 11.3706 40.6748 11.7852 41.181C12.9051 42.548 14.5517 44.1236 15.8891 45.1076C16.1881 45.3277 16.1881 45.3276 16.3496 45.1368C16.6943 44.7291 17.2516 44.6578 18.3246 44.8839C20.0624 45.25 22.5708 45.5346 25.8722 45.74C28.7753 45.9206 28.8217 45.9212 30.9625 45.8137Z" fill="#FBFAFA"/>
<path d="M26.6335 56.2021H25.2753C25.2753 56.1455 25.2789 56.0957 25.2859 56.0528C25.2929 56.0075 25.3069 55.9509 25.3278 55.8831C25.351 55.8129 25.3916 55.7405 25.4496 55.6658C25.51 55.5889 25.5854 55.5132 25.676 55.4385L26.0103 55.1602C26.2331 54.9769 26.3446 54.7574 26.3446 54.5017C26.3446 54.3253 26.3005 54.1895 26.2122 54.0945C26.124 53.9972 25.9987 53.9486 25.8362 53.9486C25.7224 53.9486 25.6191 53.9859 25.5262 54.0606C25.4357 54.1329 25.3904 54.2144 25.3904 54.305C25.3904 54.4022 25.438 54.4588 25.5331 54.4746C25.6074 54.4858 25.662 54.5107 25.6969 54.5493C25.734 54.5855 25.7525 54.6296 25.7525 54.6816C25.7525 54.7246 25.7363 54.7608 25.7038 54.7902C25.6736 54.8197 25.6307 54.8344 25.575 54.8344C25.4798 54.8344 25.4008 54.7982 25.3382 54.7258C25.2755 54.6511 25.2441 54.5538 25.2441 54.4339C25.2441 54.2597 25.3091 54.1148 25.4391 53.9995C25.5715 53.8841 25.7363 53.8264 25.9336 53.8264C26.1611 53.8264 26.348 53.8875 26.4943 54.0097C26.6405 54.1296 26.7137 54.2936 26.7137 54.5017C26.7137 54.5764 26.6974 54.6488 26.6649 54.719C26.6324 54.7891 26.5848 54.8559 26.5221 54.9192C26.4594 54.9826 26.4037 55.0346 26.355 55.0753C26.3062 55.1138 26.2448 55.159 26.1705 55.2111L25.8292 55.469C25.6272 55.607 25.5262 55.7315 25.5262 55.8423C25.5262 55.8966 25.5622 55.9238 25.6342 55.9238H26.2923C26.3852 55.9238 26.4502 55.9046 26.4873 55.8661C26.5268 55.8254 26.5535 55.7688 26.5674 55.6964L26.6057 55.4962H26.6824L26.6335 56.2021Z" fill="#C1E1FF" stroke="#C1E1FF" stroke-width="0.6"/>
<path d="M28.017 56.1478C28.0983 56.1478 28.169 56.1229 28.2293 56.0731C28.292 56.0211 28.3385 55.96 28.3687 55.8898C28.4012 55.8175 28.4267 55.727 28.4453 55.6184C28.4638 55.5097 28.4754 55.4136 28.4801 55.3299C28.4848 55.2462 28.4872 55.1511 28.4872 55.0448C28.4872 54.9362 28.4848 54.84 28.4801 54.7563C28.4754 54.6726 28.4638 54.5764 28.4453 54.4678C28.4268 54.3592 28.4012 54.2699 28.3687 54.1997C28.3385 54.1273 28.292 54.0662 28.2293 54.0165C28.169 53.9644 28.0983 53.9384 28.017 53.9384C27.9358 53.9384 27.8637 53.9644 27.801 54.0165C27.7407 54.0662 27.6943 54.1273 27.6618 54.1997C27.6316 54.2699 27.6072 54.3592 27.5887 54.4678C27.5701 54.5764 27.5585 54.6726 27.5538 54.7563C27.5491 54.84 27.5467 54.9362 27.5467 55.0448C27.5467 55.1511 27.5491 55.2462 27.5538 55.3299C27.5585 55.4136 27.5701 55.5097 27.5887 55.6184C27.6072 55.727 27.6316 55.8175 27.6618 55.8898C27.6943 55.96 27.7407 56.0211 27.801 56.0731C27.8637 56.1229 27.9358 56.1478 28.017 56.1478ZM28.017 56.2564C27.8545 56.2564 27.707 56.1976 27.5747 56.0799C27.4447 55.96 27.346 55.8084 27.2787 55.6251C27.2114 55.4419 27.1777 55.2473 27.1777 55.0414C27.1777 54.8355 27.2114 54.6409 27.2787 54.4576C27.346 54.2744 27.4447 54.1239 27.5747 54.0063C27.707 53.8864 27.8545 53.8264 28.017 53.8264C28.1795 53.8264 28.3257 53.8864 28.4557 54.0063C28.588 54.1239 28.6879 54.2744 28.7552 54.4576C28.8225 54.6409 28.8562 54.8355 28.8562 55.0414C28.8562 55.2473 28.8225 55.4419 28.7552 55.6251C28.6879 55.8084 28.588 55.96 28.4557 56.0799C28.3257 56.1976 28.1795 56.2564 28.017 56.2564Z" fill="#C1E1FF" stroke="#C1E1FF" stroke-width="0.6"/>
<path d="M29.4434 56.2021V56.0935H29.7777C29.8427 56.0935 29.8751 56.0641 29.8751 56.0052V54.3388H29.4434V54.2166H29.6348C29.7602 54.2166 29.8612 54.1838 29.9378 54.1182C30.0168 54.0526 30.0655 53.9734 30.0841 53.8806H30.1955V56.0052C30.1955 56.0641 30.228 56.0935 30.293 56.0935H30.6273V56.2021H29.4434Z" fill="#C1E1FF" stroke="#C1E1FF" stroke-width="0.6"/>
<path d="M31.4084 53.8806H32.7456C32.7456 53.9983 32.727 54.1329 32.6899 54.2845C32.655 54.4361 32.5947 54.5741 32.5088 54.6986L32.3104 54.9905C32.2152 55.1692 32.1675 55.3163 32.1675 55.4316C32.1675 55.5289 32.1745 55.6138 32.1883 55.6862L32.2091 55.805C32.2277 55.8955 32.2369 55.9747 32.2369 56.0425C32.2369 56.1851 32.1684 56.2564 32.0314 56.2564C31.9478 56.2564 31.8805 56.227 31.8295 56.1681C31.7807 56.1093 31.7563 56.0301 31.7563 55.9306C31.7563 55.8604 31.7703 55.7812 31.7982 55.693C31.8283 55.6047 31.8562 55.5368 31.8817 55.4893C31.9072 55.4396 31.9514 55.3615 32.014 55.2552C32.0767 55.1488 32.1127 55.0877 32.122 55.0719L32.4006 54.6816C32.519 54.5164 32.5781 54.3717 32.5781 54.2472C32.5781 54.1884 32.5422 54.159 32.4702 54.159H31.7494C31.6565 54.159 31.5904 54.1793 31.5509 54.22C31.5138 54.2585 31.4882 54.3139 31.4743 54.3863L31.4359 54.5866H31.3594L31.4084 53.8806Z" fill="#C1E1FF" stroke="#C1E1FF" stroke-width="0.6"/>
<path d="M9.58634 43.037C9.85434 42.8411 10.0775 42.6453 10.2558 42.4494C10.4341 42.2535 10.5597 42.0816 10.6327 41.9335C10.7057 41.7854 10.7482 41.6559 10.7601 41.5452C10.7684 41.4297 10.7492 41.3417 10.7027 41.2811C10.4658 40.9733 9.82819 41.1988 8.78969 41.9578C7.75116 42.7168 7.35033 43.2502 7.58719 43.5581C7.66973 43.6653 7.81384 43.7166 8.0196 43.712C8.22181 43.7028 8.46414 43.6386 8.74649 43.5196C9.02886 43.4007 9.30878 43.2399 9.58634 43.037ZM13.7857 42.0229L13.4843 41.6311C13.452 41.5891 13.4209 41.5681 13.391 41.5681C13.3623 41.5601 13.3263 41.5718 13.2832 41.6033L8.81813 44.8666C8.77505 44.898 8.75351 44.9284 8.75351 44.9575C8.74501 44.9855 8.75707 45.0205 8.7896 45.0624L9.091 45.4542L8.91874 45.5802L7.90672 44.2648L8.32305 43.9606L8.2907 43.9186C8.10646 43.9512 7.92093 43.9483 7.73429 43.9097C7.54767 43.8712 7.39699 43.7774 7.28214 43.6281C7.09552 43.3856 7.01303 43.1034 7.0346 42.7815C7.05621 42.4597 7.16389 42.1478 7.35769 41.8459C7.55152 41.5439 7.79917 41.2828 8.10067 41.0624C8.40218 40.842 8.72703 40.6811 9.07518 40.5797C9.42334 40.4783 9.7571 40.4603 10.0765 40.5256C10.396 40.5909 10.649 40.7449 10.8356 40.9874C10.9504 41.1367 11.0073 41.3028 11.0061 41.4859C11.0036 41.6689 10.9527 41.8555 10.8535 42.0455L10.9001 42.0771L12.6588 40.7917C12.7019 40.7602 12.7253 40.7323 12.7289 40.7078C12.7337 40.6751 12.72 40.6378 12.6876 40.5958L12.3862 40.204L12.5584 40.0781L13.958 41.8972L13.7857 42.0229Z" fill="#C1E1FF"/>
<path d="M5.87258 40.9966L5.67748 41.0853L4.7483 39.1436L4.9434 39.0549L5.05344 39.2847C5.07625 39.3323 5.11672 39.3685 5.17485 39.3936C5.23051 39.4132 5.29086 39.4082 5.35591 39.3787C5.41554 39.3515 5.48259 39.2985 5.55705 39.2197L7.17498 37.4904L5.14757 37.7847C4.97806 37.8167 4.84996 37.8524 4.76324 37.8919C4.6819 37.9288 4.62148 37.982 4.58209 38.0514C4.53726 38.1232 4.53393 38.1988 4.57196 38.278L4.67053 38.4841L4.47534 38.5728L3.84961 37.2651L4.0448 37.1764L4.12817 37.3507C4.17368 37.4458 4.26136 37.5186 4.39108 37.569C4.51826 37.6141 4.67453 37.6234 4.85994 37.597L9.543 36.9351C10.29 36.8271 10.7558 36.966 10.9403 37.3517C11.044 37.5683 11.0598 37.7735 10.9874 37.9672C10.9151 38.1609 10.7678 38.3082 10.5455 38.4092C10.3666 38.4906 10.1828 38.5065 9.99417 38.4572C9.80556 38.4078 9.67085 38.2986 9.58993 38.1296C9.52925 38.0027 9.51785 37.8825 9.55571 37.7687C9.59658 37.6472 9.67393 37.5606 9.78778 37.5088C9.92331 37.4472 10.0612 37.4457 10.2014 37.5042C10.3018 37.5486 10.39 37.5536 10.4659 37.5191C10.5147 37.4969 10.5504 37.4613 10.5732 37.4124C10.6014 37.361 10.6014 37.3063 10.5732 37.2481C10.5429 37.1847 10.4771 37.1439 10.3759 37.1255C10.2722 37.1019 10.1788 37.0929 10.0957 37.0985C10.01 37.0985 9.90544 37.1075 9.78183 37.1255L8.76216 37.2706L6.05168 40.1719C5.9136 40.3248 5.82455 40.4489 5.78441 40.5443C5.74174 40.6345 5.75204 40.7456 5.81534 40.8777L5.87258 40.9966Z" fill="#C1E1FF"/>
<path d="M5.59299 35.7229C5.19272 35.8212 4.81116 35.8366 4.44836 35.7694C4.08553 35.7021 3.76976 35.5542 3.50096 35.3256C3.23213 35.097 3.05311 34.8102 2.96402 34.4654C2.91145 34.2618 2.89883 34.0695 2.92606 33.8885C2.95332 33.7074 3.01323 33.5575 3.10587 33.4385C3.19706 33.314 3.30565 33.2091 3.43172 33.1241C3.552 33.0405 3.68181 32.9816 3.82102 32.9474C4.02985 32.8962 4.22858 32.9135 4.41734 32.9994C4.60029 33.0868 4.71443 33.2181 4.75972 33.3934C4.79331 33.5234 4.78334 33.6401 4.72985 33.7434C4.67053 33.8481 4.57422 33.9169 4.4408 33.9496C4.27838 33.9895 4.10123 33.9367 3.90946 33.7914C3.7584 33.6842 3.62197 33.6456 3.50016 33.6755C3.37834 33.7054 3.2791 33.7748 3.2024 33.8838C3.11988 33.9942 3.10424 34.1484 3.15538 34.3462C3.28831 34.8607 4.00731 34.9578 5.31248 34.6375C5.52131 34.5862 5.67799 34.5478 5.7824 34.5221C5.87956 34.4923 5.99621 34.4546 6.13251 34.4091C6.26734 34.358 6.3862 34.3048 6.48911 34.2495C6.69061 34.1459 6.83625 34.005 6.92588 33.8267C7.01551 33.6484 7.03621 33.4659 6.98801 33.2794C6.95148 33.138 6.88013 33.0172 6.77407 32.917C6.6665 32.8112 6.54235 32.7365 6.40156 32.6929C6.25928 32.6436 6.10907 32.6113 5.95092 32.596C5.79275 32.5806 5.63678 32.5859 5.48304 32.6116L5.42607 32.3911C5.5682 32.3682 5.71035 32.3573 5.85253 32.3585C5.99471 32.3585 6.14203 32.3795 6.29446 32.4214C6.44685 32.4622 6.58765 32.5178 6.71692 32.5883C6.84616 32.6588 6.96244 32.7625 7.06569 32.8995C7.16894 33.0364 7.24467 33.1982 7.29288 33.3848C7.43018 33.9162 7.33384 34.4028 7.00383 34.8445C6.67236 35.2805 6.20207 35.5733 5.59299 35.7228V35.7229Z" fill="#C1E1FF"/>
<path d="M4.58758 31.3337C4.17548 31.3562 3.79785 31.3009 3.45468 31.1678C3.11151 31.0347 2.83019 30.8311 2.61074 30.557C2.3913 30.2829 2.27144 29.9683 2.25103 29.6132C2.23889 29.4036 2.26381 29.2125 2.32587 29.0398C2.38785 28.8671 2.47593 28.7309 2.59003 28.6312C2.70378 28.5258 2.83082 28.4429 2.97116 28.3827C3.10552 28.3228 3.24441 28.289 3.38775 28.2811C3.60274 28.2693 3.79454 28.3231 3.96318 28.4424C4.12582 28.562 4.21226 28.712 4.22263 28.8925C4.23039 29.0264 4.19799 29.1391 4.1253 29.2306C4.04669 29.3225 3.93869 29.3722 3.80132 29.3797C3.63409 29.3889 3.47044 29.3044 3.31042 29.1262C3.18295 28.993 3.0565 28.9298 2.93107 28.9367C2.80566 28.9435 2.69473 28.9934 2.5982 29.0862C2.49571 29.1794 2.45031 29.3279 2.46204 29.5316C2.49247 30.0613 3.1796 30.2895 4.52341 30.2161C4.73842 30.2043 4.89961 30.1956 5.00711 30.1899C5.10832 30.1785 5.23028 30.1631 5.37295 30.1436C5.5153 30.1183 5.64237 30.0881 5.75417 30.0528C5.97214 29.9883 6.14244 29.8769 6.26515 29.7183C6.38784 29.5598 6.44374 29.3845 6.4327 29.1924C6.42444 29.0469 6.37793 28.9151 6.29315 28.7971C6.20815 28.6733 6.10073 28.577 5.97095 28.5082C5.84086 28.4335 5.69966 28.3741 5.54734 28.3299C5.39501 28.2856 5.24084 28.2619 5.08488 28.2587L5.07181 28.0317C5.21584 28.0355 5.35749 28.0511 5.49685 28.0786C5.63624 28.106 5.77682 28.1538 5.91851 28.222C6.06023 28.2901 6.18768 28.3708 6.30088 28.4639C6.41408 28.557 6.508 28.6803 6.58273 28.8338C6.65744 28.9874 6.70039 29.1603 6.71143 29.3523C6.74286 29.8995 6.55359 30.3595 6.14365 30.7322C5.73335 31.0991 5.21469 31.2995 4.58758 31.3337Z" fill="#C1E1FF"/>
<path d="M6.50975 27.182L6.29643 27.154L6.34211 26.8247C6.34939 26.7727 6.34529 26.7368 6.32976 26.7172C6.30937 26.6909 6.27248 26.6743 6.21901 26.6672L2.7156 26.2051C2.66226 26.198 2.62514 26.2049 2.60415 26.2257C2.57803 26.2399 2.56134 26.273 2.5541 26.325L2.50833 26.6543L2.29492 26.6263L2.5573 24.7371L2.77071 24.7651L2.73223 25.0424C2.72494 25.0944 2.73159 25.1335 2.75222 25.1597C2.76751 25.1794 2.80182 25.1927 2.85524 25.1998L4.43798 25.4086L4.51388 24.8626C4.53063 24.7413 4.49563 24.6455 4.40891 24.5753C4.32209 24.505 4.20157 24.4596 4.04742 24.4393L3.44284 24.3596C3.14645 24.3205 2.92864 24.2152 2.78947 24.0439C2.65107 23.8668 2.59668 23.6714 2.62637 23.4577C2.65525 23.2497 2.7404 23.0932 2.88173 22.9883C3.02306 22.8834 3.19742 22.8447 3.40489 22.872C3.56496 22.8931 3.69327 22.9688 3.78984 23.0993C3.88642 23.2297 3.92588 23.3584 3.90823 23.4855C3.89052 23.6126 3.83718 23.7144 3.74816 23.7909C3.65906 23.8674 3.55222 23.8975 3.42773 23.881C3.35067 23.8709 3.27176 23.831 3.19086 23.7615C3.13208 23.7067 3.08189 23.6766 3.04038 23.6711C2.98703 23.664 2.9564 23.6894 2.94839 23.7472C2.93722 23.8281 2.972 23.9033 3.05283 23.9728C3.13372 24.0423 3.27202 24.0899 3.46764 24.1157L4.08111 24.1967C4.22339 24.2153 4.33367 24.2475 4.41184 24.2932C4.49002 24.3389 4.55269 24.4089 4.59992 24.5034L4.64436 24.509C4.72759 24.2141 4.86642 23.9971 5.06078 23.858C5.25596 23.7131 5.53137 23.6641 5.88703 23.7111L6.46504 23.7873C6.6251 23.8084 6.71395 23.7554 6.7316 23.6283C6.75888 23.4319 6.48793 23.2961 5.91885 23.2211L5.95014 22.9958C6.34139 23.0474 6.63575 23.145 6.8331 23.2887C7.03047 23.4324 7.10867 23.6516 7.06775 23.9462C7.02843 24.2293 6.92305 24.4449 6.7516 24.5928C6.58012 24.7408 6.34617 24.7953 6.04978 24.7562L5.34734 24.6635C5.17542 24.6408 5.03683 24.6608 4.93154 24.7234C4.82628 24.786 4.76564 24.8751 4.7496 24.9906L4.68703 25.4413L6.35864 25.6618C6.41199 25.6689 6.45179 25.6653 6.47792 25.6511C6.4988 25.6303 6.5129 25.5939 6.52023 25.542L6.55872 25.2647L6.77213 25.2927L6.50975 27.182Z" fill="#C1E1FF"/>
<path d="M4.24394 20.1651C4.50946 20.358 4.9769 20.5725 5.64624 20.8087C6.31559 21.0448 6.81556 21.1716 7.14623 21.1891C7.47692 21.2066 7.68709 21.0947 7.77668 20.8535C7.86628 20.6123 7.77833 20.3953 7.51278 20.2024C7.24726 20.0095 6.77982 19.795 6.11048 19.5588C5.44116 19.3227 4.94118 19.1958 4.61049 19.1784C4.2798 19.1609 4.06963 19.2727 3.98005 19.514C3.89046 19.7552 3.97841 19.9722 4.24394 20.1651ZM6.15092 22.0191C5.85195 22.019 5.55343 21.9664 5.25534 21.8612C4.95722 21.756 4.69604 21.6112 4.47192 21.4267C4.24217 21.2403 4.06587 21.0386 3.94289 20.8216C3.81431 20.6026 3.73419 20.3728 3.70264 20.1323C3.67111 19.8917 3.69612 19.6618 3.77757 19.4425C3.85902 19.2233 3.99081 19.0311 4.17301 18.866C4.35521 18.7008 4.56766 18.5743 4.8103 18.4863C5.04728 18.3963 5.31525 18.3513 5.61425 18.3514C5.90758 18.349 6.20335 18.4007 6.50147 18.5063C6.79957 18.6115 7.06349 18.7573 7.29324 18.9437C7.51736 19.1282 7.69366 19.3299 7.82227 19.5489C7.94525 19.7659 8.02255 19.9947 8.05408 20.2352C8.08561 20.4757 8.0606 20.7057 7.97915 20.925C7.89772 21.1442 7.76594 21.3364 7.58371 21.5015C7.40151 21.6667 7.19187 21.7942 6.95486 21.8842C6.71225 21.9722 6.44428 22.0172 6.15092 22.0191Z" fill="#C1E1FF"/>
<path d="M8.87443 18.5233L8.68858 18.4173L8.86065 18.1305C8.88784 18.0852 8.89825 18.0506 8.89194 18.0266C8.88344 17.9947 8.85594 17.9656 8.80937 17.9391L5.75749 16.1999C5.71101 16.1734 5.67402 16.1658 5.64647 16.1772C5.61674 16.1805 5.5883 16.2048 5.56114 16.2501L5.38898 16.537L5.20312 16.4311L6.83359 13.7134L8.39446 14.542L8.26763 14.7535C8.07996 14.6735 7.80788 14.613 7.45142 14.572C7.23873 14.5453 7.02602 14.5591 6.81324 14.6135C6.60349 14.6628 6.45336 14.7629 6.36278 14.9139L6.23141 15.1329C6.20423 15.1782 6.19492 15.2168 6.20341 15.2486C6.20972 15.2726 6.23618 15.2978 6.28278 15.3243L9.33466 17.0634C9.38114 17.0899 9.41917 17.1015 9.44888 17.0982C9.47645 17.0868 9.50382 17.0586 9.53101 17.0133L9.70317 16.7264L9.88903 16.8324L8.87443 18.5233Z" fill="#C1E1FF"/>
<path d="M8.99265 11.9331C9.16818 12.2068 9.52381 12.5722 10.0594 13.0291C10.595 13.4861 11.0136 13.7812 11.3152 13.9146C11.6167 14.0479 11.8543 14.018 12.0276 13.825C12.201 13.632 12.1998 13.3986 12.024 13.1249C11.8485 12.8512 11.4928 12.4859 10.9572 12.0289C10.4216 11.572 10.0031 11.2768 9.70149 11.1435C9.3999 11.0101 9.16237 11.04 8.98901 11.233C8.81564 11.426 8.81686 11.6594 8.99265 11.9331ZM10.0785 14.3355C9.8 14.2296 9.54139 14.0749 9.30285 13.8713C9.06429 13.6678 8.87505 13.4405 8.73498 13.1892C8.59042 12.9342 8.50124 12.6838 8.46753 12.4381C8.42933 12.1885 8.4404 11.9462 8.50068 11.7109C8.56095 11.4756 8.66983 11.2702 8.82742 11.0948C8.98503 10.9193 9.17954 10.7869 9.41084 10.6975C9.64215 10.6082 9.88723 10.5655 10.1461 10.5693C10.4004 10.5694 10.6669 10.6224 10.9454 10.7283C11.2194 10.8304 11.4757 10.9832 11.7142 11.1867C11.9528 11.3902 12.1443 11.6195 12.2889 11.8746C12.4289 12.1258 12.5181 12.3761 12.5563 12.6257C12.59 12.8714 12.5768 13.1119 12.5165 13.3472C12.4562 13.5824 12.3473 13.7878 12.1897 13.9633C12.0321 14.1388 11.8376 14.2711 11.6063 14.3605C11.375 14.4498 11.1322 14.4945 10.8779 14.4944C10.619 14.4906 10.3526 14.4377 10.0785 14.3355Z" fill="#C1E1FF"/>
<path d="M15.1282 9.48366L15.3331 9.37499C15.4474 9.57984 15.5657 9.74282 15.6878 9.86391C15.8099 9.98502 15.9208 10.0191 16.0206 9.96617C16.1363 9.90486 16.1555 9.80505 16.0782 9.66679L15.7995 9.16748C15.628 8.86021 15.5743 8.59331 15.6385 8.3668C15.708 8.13749 15.8693 7.93246 16.1225 7.75171L16.1011 7.71329C15.9884 7.70667 15.8963 7.67588 15.8248 7.62091C15.7584 7.56314 15.691 7.47281 15.6224 7.3499L15.3265 6.81988C15.2321 6.65089 15.1372 6.54189 15.0418 6.49295C14.9463 6.44399 14.8619 6.43902 14.7883 6.47805C14.7357 6.50589 14.7224 6.54287 14.7481 6.58898C14.768 6.62481 14.8148 6.65976 14.8884 6.69379C14.9838 6.74276 15.05 6.80053 15.0872 6.86709C15.1472 6.97465 15.1565 7.08262 15.1149 7.19098C15.0733 7.29934 14.9946 7.38418 14.879 7.44549C14.7582 7.50957 14.618 7.5208 14.4586 7.47919C14.3045 7.43483 14.1888 7.34354 14.1116 7.20528C14.0116 7.02605 13.9866 6.8534 14.037 6.68734C14.0873 6.52129 14.207 6.3881 14.3961 6.28778C14.5906 6.18469 14.7947 6.16606 15.0085 6.23186C15.2276 6.2949 15.4086 6.45445 15.5515 6.71051L15.8431 7.23282C15.9175 7.36597 16.0038 7.45959 16.1021 7.51366C16.2056 7.56495 16.31 7.56273 16.415 7.50695L16.7618 7.32304L15.9985 5.95574C15.9728 5.90964 15.9451 5.88446 15.9155 5.88025C15.8883 5.86818 15.8511 5.87471 15.8038 5.89978L15.5042 6.05861L15.4013 5.87423L17.1195 4.9631L17.2224 5.14748L16.9703 5.28119C16.923 5.30626 16.8945 5.33463 16.8849 5.36626C16.8777 5.38998 16.8869 5.42488 16.9126 5.47099L17.6759 6.83829L18.0227 6.65438C18.1278 6.59865 18.1837 6.51587 18.1905 6.40607C18.2027 6.29349 18.1715 6.17063 18.0971 6.03747L17.8055 5.51516C17.6625 5.2591 17.6209 5.02573 17.6803 4.81501C17.745 4.60151 17.8745 4.44317 18.0689 4.34009C18.258 4.23977 18.4378 4.21413 18.6082 4.26316C18.7786 4.3122 18.9138 4.42636 19.0139 4.60559C19.091 4.74386 19.1043 4.88947 19.0535 5.04249C19.008 5.19275 18.9248 5.29992 18.8039 5.364C18.6883 5.42532 18.5726 5.44358 18.4566 5.41879C18.3406 5.39403 18.2525 5.32785 18.1925 5.22029C18.1553 5.15373 18.1416 5.06812 18.1513 4.96345C18.1619 4.88482 18.1573 4.82757 18.1371 4.79171C18.1114 4.74563 18.0723 4.73651 18.0197 4.76438C17.9461 4.80339 17.9045 4.87523 17.8948 4.9799C17.8851 5.0846 17.9275 5.22144 18.0219 5.39042L18.3177 5.92049C18.3864 6.0434 18.425 6.14905 18.4335 6.23745C18.4473 6.32308 18.4265 6.41378 18.3709 6.50958L18.3923 6.54796C18.6856 6.43891 18.9472 6.41965 19.1772 6.49014C19.4125 6.55784 19.616 6.74532 19.7875 7.0526L20.0662 7.55191C20.1434 7.69017 20.2399 7.72863 20.3555 7.66734C20.4553 7.6144 20.4862 7.50507 20.4482 7.33937C20.4102 7.1737 20.334 6.98845 20.2197 6.78363L20.4245 6.67495C20.6132 7.01293 20.7065 7.30198 20.7043 7.54208C20.7019 7.78217 20.5642 7.97464 20.2912 8.11952C20.0337 8.25606 19.7931 8.30071 19.5692 8.25349C19.3454 8.20625 19.162 8.05466 19.019 7.79862L18.6803 7.19176C18.5974 7.04326 18.4989 6.94612 18.3848 6.9004C18.2708 6.8547 18.1612 6.85966 18.0561 6.9153L17.796 7.05325L18.6022 8.49734C18.628 8.54345 18.6544 8.57255 18.6816 8.58466C18.7112 8.58892 18.7497 8.57851 18.797 8.55343L19.0492 8.41973L19.1521 8.60406L17.4339 9.51519L17.331 9.33085L17.6305 9.17203C17.6778 9.14695 17.705 9.12255 17.7122 9.09883C17.7216 9.0672 17.7137 9.02833 17.6882 8.98223L16.8819 7.53814L16.6219 7.67604C16.5168 7.73177 16.4529 7.81872 16.4304 7.93687C16.4078 8.05503 16.438 8.18838 16.5209 8.33691L16.8597 8.94372C17.0026 9.19979 17.0337 9.4322 16.9528 9.64102C16.8719 9.84986 16.7026 10.0225 16.4452 10.1591C16.1719 10.304 15.9313 10.3122 15.7233 10.1836C15.5153 10.055 15.3169 9.82164 15.1283 9.48366H15.1282Z" fill="#C1E1FF"/>
<path d="M21.1039 5.53952C20.9398 4.93656 20.9739 4.39096 21.2061 3.90268C21.4383 3.4144 21.7973 3.10743 22.283 2.98185C22.6357 2.89068 22.9693 2.93415 23.2839 3.11218C23.6042 3.28873 23.863 3.56863 24.0602 3.95193C24.1497 4.12179 24.2466 4.39832 24.3509 4.7815L22.2347 5.32863C22.2838 5.50894 22.3214 5.64698 22.3475 5.74278C22.3794 5.83707 22.4179 5.94473 22.4632 6.06572C22.5143 6.1852 22.5689 6.29471 22.627 6.3943C22.7357 6.58935 22.8821 6.72945 23.0662 6.81456C23.2503 6.89967 23.4377 6.91754 23.6285 6.86822C23.773 6.83085 23.8961 6.75986 23.9975 6.65521C24.1048 6.54907 24.1799 6.42711 24.2228 6.28935C24.2716 6.15007 24.3028 6.00327 24.3165 5.84894C24.3301 5.69462 24.3228 5.54273 24.2947 5.39321L24.5202 5.33491C24.5454 5.47314 24.5583 5.61153 24.5589 5.7501C24.5589 5.8887 24.5393 6.03248 24.5 6.1815C24.4601 6.33055 24.4048 6.46852 24.3341 6.59535C24.2635 6.72221 24.1585 6.8368 24.0192 6.93913C23.88 7.04148 23.715 7.11733 23.5241 7.16665C22.9806 7.30716 22.4802 7.21936 22.0229 6.90331C21.5713 6.58579 21.2651 6.13121 21.104 5.53952H21.1039ZM22.1703 5.09192L23.2804 4.80493C23.1179 4.2076 22.9577 3.77851 22.8001 3.51767C22.6482 3.25537 22.4654 3.15186 22.2514 3.20716C22.0375 3.26247 21.9284 3.44147 21.9242 3.74415C21.9266 4.04532 22.0086 4.49459 22.1703 5.09192Z" fill="#C1E1FF"/>
<path d="M25.6338 4.49104C25.6067 4.08965 25.6598 3.72108 25.7929 3.38535C25.9261 3.04962 26.1323 2.77346 26.4114 2.55691C26.6905 2.34035 27.0122 2.22039 27.3763 2.19702C27.5912 2.1833 27.7875 2.20573 27.9653 2.26437C28.1431 2.32306 28.2837 2.40752 28.3871 2.51775C28.4964 2.62758 28.5827 2.7506 28.6458 2.88678C28.7086 3.01711 28.7446 3.15212 28.7541 3.29175C28.7681 3.50117 28.7149 3.68862 28.5943 3.85413C28.4732 4.0138 28.3201 4.09957 28.1351 4.11145C27.9978 4.1202 27.8817 4.08967 27.7871 4.01984C27.6921 3.94415 27.6401 3.8394 27.631 3.70561C27.6201 3.54272 27.7052 3.38241 27.8863 3.2247C28.0217 3.09917 28.0853 2.9753 28.077 2.85312C28.0688 2.73097 28.0166 2.62333 27.9203 2.53018C27.8237 2.43121 27.671 2.38843 27.4621 2.40185C26.9189 2.43669 26.6915 3.10857 26.7799 4.4175C26.794 4.62691 26.8046 4.78398 26.8119 4.8887C26.8245 4.98722 26.8415 5.1059 26.8629 5.24473C26.8903 5.3832 26.9226 5.50674 26.9599 5.61536C27.0281 5.82716 27.1442 5.99206 27.308 6.11008C27.4719 6.22811 27.6524 6.28082 27.8493 6.26817C27.9985 6.25847 28.1332 6.21186 28.2535 6.12831C28.3797 6.04427 28.4775 5.93867 28.5469 5.81152C28.6222 5.684 28.6817 5.54581 28.7256 5.39693C28.7695 5.24805 28.7924 5.09755 28.7941 4.94552L29.0268 4.93062C29.0244 5.07101 29.0098 5.20926 28.9829 5.34535C28.9562 5.48145 28.9085 5.6189 28.8399 5.75768C28.7714 5.89647 28.6899 6.02146 28.5955 6.13269C28.5011 6.24391 28.3755 6.33669 28.2186 6.41102C28.0618 6.48536 27.8849 6.52884 27.6879 6.54147C27.1268 6.57748 26.653 6.39757 26.2666 6.00171C25.8861 5.60545 25.6753 5.10188 25.634 4.49104H25.6338Z" fill="#C1E1FF"/>
<path d="M30.1621 3.94594L30.4216 2.23218L33.9865 2.63759L33.834 4.36356L33.5845 4.33515C33.5752 4.11104 33.5243 3.83231 33.4317 3.49895C33.3773 3.29907 33.2961 3.12257 33.1879 2.96941C33.0857 2.81693 32.9692 2.73324 32.8385 2.71836C32.7791 2.7115 32.7394 2.71577 32.7195 2.73114C32.6996 2.74652 32.6862 2.78314 32.6793 2.84103L32.2695 6.26331C32.2632 6.31542 32.2676 6.35406 32.2827 6.37926C32.3043 6.39936 32.3418 6.41244 32.3954 6.4185L32.8945 6.47528L32.8694 6.68374L30.5521 6.42023L30.5773 6.21172L31.0764 6.2685C31.1298 6.27465 31.1665 6.27002 31.1864 6.25464C31.2129 6.2343 31.2294 6.19801 31.2356 6.14576L31.6454 2.72348C31.6524 2.66557 31.648 2.62692 31.6322 2.60753C31.6165 2.58813 31.5789 2.57503 31.5195 2.56829C31.3888 2.55338 31.2527 2.60833 31.1113 2.73313C30.9758 2.8586 30.858 3.0125 30.7579 3.19481C30.6811 3.33283 30.614 3.46605 30.5565 3.5945C30.499 3.72297 30.4604 3.8184 30.4409 3.88075L30.4118 3.97422L30.1621 3.94594Z" fill="#C1E1FF"/>
<path d="M36.6671 3.92309C36.4773 4.18757 36.2714 4.6494 36.0494 5.30858C35.8275 5.96777 35.7127 6.45868 35.7047 6.78135C35.6967 7.10402 35.8178 7.30537 36.0679 7.38535C36.318 7.46535 36.538 7.37309 36.7278 7.10858C36.9176 6.84407 37.1234 6.38223 37.3453 5.72305C37.5673 5.06386 37.6822 4.57295 37.6901 4.25028C37.6981 3.92761 37.577 3.72626 37.3269 3.64628C37.0768 3.5663 36.8569 3.65859 36.6671 3.92309ZM34.8234 5.83683C34.8144 5.54557 34.8593 5.25315 34.9582 4.95957C35.0571 4.66599 35.1977 4.40727 35.3801 4.18336C35.5644 3.95391 35.766 3.77598 35.9848 3.64962C36.2055 3.51772 36.4387 3.4328 36.6844 3.39481C36.9302 3.35682 37.1667 3.37415 37.3941 3.44687C37.6214 3.51958 37.8225 3.64219 37.9974 3.81468C38.1723 3.98719 38.3085 4.1903 38.4061 4.42401C38.5055 4.65215 38.5598 4.91186 38.5687 5.20312C38.5797 5.48882 38.5356 5.77848 38.4367 6.07206C38.3378 6.36566 38.1963 6.62718 38.012 6.85663C37.8295 7.08052 37.6279 7.25841 37.4072 7.39033C37.1884 7.51667 36.9562 7.59886 36.7105 7.63687C36.4647 7.67486 36.2282 7.65748 36.0008 7.58476C35.7735 7.51205 35.5724 7.38946 35.3975 7.21695C35.2226 7.04444 35.0855 6.84409 34.986 6.61594C34.8884 6.38226 34.8342 6.12255 34.8234 5.83683Z" fill="#C1E1FF"/>
<path d="M40.0082 8.78881C39.9815 8.83437 39.97 8.87158 39.9737 8.90051C39.9856 8.92726 40.0149 8.95369 40.0616 8.97973L40.3576 9.14462C40.5238 9.23721 40.6945 9.2282 40.8696 9.11764C41.0447 9.00701 41.2005 8.83526 41.337 8.60243C41.4736 8.36962 41.5419 8.15922 41.5419 7.97119C41.5419 7.78318 41.4589 7.64286 41.2927 7.55028L40.872 7.31595L40.0082 8.78881ZM40.9968 7.10333L41.3629 7.30729C41.6434 7.46351 41.9246 7.30119 42.2066 6.82037C42.3402 6.5926 42.4036 6.39627 42.3969 6.2314C42.3945 6.06941 42.3289 5.95227 42.2 5.87996L41.9585 5.74539C41.9118 5.71934 41.8721 5.71071 41.8394 5.71948C41.8149 5.72611 41.7893 5.75214 41.7626 5.79758L40.9968 7.10333ZM38.5059 8.35473L38.6127 8.17255L38.9087 8.33744C38.9554 8.36346 38.9911 8.37317 39.0156 8.36655C39.0482 8.3578 39.0779 8.33067 39.1047 8.28521L40.8589 5.29389C40.8857 5.24833 40.8931 5.21219 40.8812 5.18544C40.8775 5.15651 40.8523 5.12901 40.8055 5.10297L40.5095 4.93803L40.6163 4.75586L42.4938 5.80169C42.8417 5.99552 43.0724 6.22479 43.1859 6.48946C43.3046 6.75704 43.2838 7.02749 43.1235 7.30079C42.9899 7.52856 42.7921 7.66014 42.5302 7.69555C42.2765 7.72878 42.0016 7.68643 41.7056 7.56851L41.6877 7.59905C42.0312 7.82398 42.2605 8.07925 42.3755 8.3649C42.4904 8.65056 42.4633 8.93765 42.294 9.22614C42.1367 9.4944 41.8971 9.65634 41.5751 9.71198C41.2531 9.76764 40.9336 9.70724 40.6168 9.53076L38.5059 8.35473Z" fill="#C1E1FF"/>
<path d="M45.8145 8.7719C45.5338 8.94309 45.1591 9.28981 44.6905 9.81206C44.2219 10.3343 43.9193 10.7424 43.7827 11.0364C43.646 11.3304 43.6768 11.5619 43.8749 11.7307C44.073 11.8996 44.3124 11.8984 44.5932 11.7272C44.8739 11.556 45.2486 11.2093 45.7172 10.687C46.1858 10.1648 46.4885 9.75661 46.6251 9.46261C46.7618 9.16861 46.731 8.9372 46.5329 8.76835C46.3347 8.59948 46.0953 8.60066 45.8145 8.7719ZM43.3502 9.83138C43.4587 9.55987 43.6173 9.3078 43.8259 9.07518C44.0347 8.84258 44.2679 8.65796 44.5255 8.52134C44.7872 8.38031 45.0441 8.29331 45.2962 8.26033C45.5522 8.22296 45.8009 8.23363 46.0423 8.2923C46.2837 8.35089 46.4945 8.45691 46.6746 8.61043C46.8548 8.76395 46.9907 8.9534 47.0825 9.17878C47.1743 9.40416 47.2183 9.64299 47.2144 9.89526C47.2145 10.1432 47.1603 10.4029 47.0518 10.6744C46.9472 10.9415 46.7906 11.1914 46.5818 11.424C46.3732 11.6566 46.1379 11.8434 45.8763 11.9844C45.6186 12.121 45.3618 12.208 45.1058 12.2454C44.8537 12.2784 44.6069 12.2656 44.3655 12.207C44.124 12.1483 43.9133 12.0423 43.7332 11.8888C43.553 11.7353 43.4171 11.5458 43.3253 11.3204C43.2335 11.095 43.1876 10.8584 43.1875 10.6105C43.1914 10.3583 43.2456 10.0986 43.3502 9.83146V9.83138Z" fill="#C1E1FF"/>
<path d="M45.7148 13.5631L45.884 13.4333L46.095 13.6943C46.1283 13.7355 46.1576 13.7576 46.1828 13.7605C46.2164 13.7643 46.2544 13.75 46.2967 13.7176L49.0735 11.5852C49.1159 11.5527 49.1366 11.5219 49.1359 11.4928C49.1436 11.4646 49.1309 11.4299 49.0975 11.3887L48.8864 11.1277L49.0556 10.9978L51.0547 13.4707L49.6925 14.5835L49.5371 14.3911C49.682 14.2501 49.8393 14.0255 50.0089 13.7171C50.1121 13.5339 50.1766 13.3359 50.2025 13.123C50.2321 12.9147 50.1915 12.7419 50.0804 12.6045L49.9194 12.4053C49.886 12.3641 49.8525 12.3416 49.8189 12.3377C49.7937 12.3348 49.76 12.3496 49.7177 12.382L46.9408 14.5144C46.8985 14.5469 46.8736 14.5772 46.8659 14.6054C46.8659 14.6345 46.8829 14.6697 46.9169 14.7109L47.1279 14.9719L46.9588 15.1018L45.7148 13.5631Z" fill="#C1E1FF"/>
<path d="M51.9625 16.0735C51.637 16.1332 51.1585 16.323 50.5268 16.6429C49.8952 16.9629 49.4608 17.2355 49.2236 17.4607C48.9865 17.686 48.9285 17.9124 49.0499 18.14C49.1713 18.3676 49.3947 18.4516 49.7201 18.3919C50.0456 18.3322 50.5241 18.1423 51.1558 17.8224C51.7874 17.5025 52.2218 17.2299 52.459 17.0046C52.6961 16.7794 52.7541 16.5529 52.6327 16.3253C52.5114 16.0977 52.2879 16.0137 51.9625 16.0735ZM49.2714 16.1849C49.4739 15.9706 49.7159 15.7922 49.9972 15.6497C50.2785 15.5072 50.5647 15.4181 50.8558 15.3824C51.1522 15.344 51.4239 15.3541 51.6709 15.4129C51.9233 15.469 52.151 15.5673 52.3539 15.7076C52.5568 15.8479 52.7135 16.0215 52.8238 16.2285C52.9342 16.4354 52.9899 16.6601 52.9911 16.9026C52.9935 17.1451 52.9452 17.3831 52.8461 17.6167C52.7534 17.8475 52.6059 18.0701 52.4033 18.2844C52.2061 18.496 51.9668 18.6731 51.6854 18.8156C51.4041 18.9581 51.1153 19.0485 50.8189 19.0869C50.5279 19.1226 50.2561 19.1125 50.0037 19.0564C49.7566 18.9976 49.5316 18.898 49.3287 18.7577C49.1258 18.6174 48.9691 18.4437 48.8588 18.2368C48.7484 18.0299 48.6927 17.8052 48.6915 17.5627C48.6891 17.3202 48.7347 17.0835 48.8286 16.8527C48.9265 16.6191 49.0741 16.3965 49.2714 16.1849Z" fill="#C1E1FF"/>
<path d="M51.9105 22.4866L51.9474 22.7111C51.3804 22.7997 51.113 22.9418 51.1452 23.1376C51.1661 23.2642 51.2562 23.315 51.4156 23.2901L51.9561 23.2057C52.2927 23.1531 52.5521 23.2011 52.734 23.3498C52.9219 23.4976 53.068 23.7228 53.1722 24.0253L53.2166 24.0186C53.2214 23.2384 53.4985 22.8054 54.0479 22.7196C54.3787 22.6679 54.6638 22.7621 54.9032 23.0023C55.1485 23.2414 55.3086 23.5884 55.3834 24.0432L55.7115 26.0378L55.4988 26.0711L55.4534 25.7948C55.4449 25.743 55.427 25.7074 55.3996 25.6881C55.3789 25.6737 55.3421 25.6706 55.289 25.6789L51.7982 26.2243C51.745 26.2325 51.708 26.2472 51.6873 26.2681C51.6734 26.2939 51.6708 26.3327 51.6793 26.3846L51.7332 26.7127L51.5206 26.746L51.2025 24.8119L51.4151 24.7785L51.4691 25.1067C51.4776 25.1585 51.4921 25.1916 51.5127 25.2061C51.5401 25.2255 51.5804 25.2311 51.6336 25.2228L53.2992 24.9626L53.2438 24.6258C53.1803 24.2401 52.9419 24.0796 52.5285 24.1442L51.8552 24.2494C51.5598 24.2955 51.3246 24.2467 51.1494 24.1028C50.9743 23.9589 50.8636 23.746 50.8172 23.4639C50.7689 23.1703 50.8415 22.9493 51.0352 22.801C51.2289 22.6526 51.5207 22.548 51.9105 22.4871L51.9105 22.4866ZM55.1907 24.1971C55.1272 23.8114 54.8031 23.6642 54.2184 23.7556C53.6337 23.847 53.373 24.0855 53.4365 24.4712L53.5117 24.9288L55.1242 24.6769C55.1773 24.6686 55.2109 24.6515 55.2248 24.6257C55.2447 24.599 55.2505 24.5597 55.242 24.5079L55.1907 24.1971Z" fill="#C1E1FF"/>
<path d="M51.9568 27.6637C52.0964 27.5913 52.2558 27.5574 52.4352 27.5619C52.6146 27.5664 52.7657 27.6256 52.8883 27.7394C53.0109 27.8591 53.0701 27.9977 53.0659 28.155C53.0623 28.2949 53.0174 28.4075 52.9314 28.4928C52.8453 28.5782 52.7455 28.6194 52.6319 28.6165C52.4585 28.6123 52.326 28.5302 52.2344 28.3704C52.1539 28.246 52.0718 28.1827 51.9881 28.1806C51.8446 28.1771 51.7383 28.2385 51.6691 28.3651C51.6 28.4916 51.5628 28.654 51.5576 28.8522C51.5525 29.0503 51.6412 29.2042 51.8237 29.3137C52.0123 29.4234 52.28 29.4825 52.6268 29.4912C53.2308 29.5063 53.5377 29.3303 53.5473 28.963L53.568 28.1675L53.8192 28.1739L53.7985 28.9607C53.7961 29.0307 53.8064 29.095 53.8294 29.1539C53.8518 29.2128 53.8895 29.2575 53.9426 29.288C53.9955 29.3243 54.0486 29.3518 54.1019 29.3707C54.1551 29.3953 54.2206 29.4115 54.2982 29.4193C54.3756 29.433 54.4412 29.4405 54.4951 29.4417C54.5487 29.4487 54.6174 29.4533 54.7011 29.4555C55.2872 29.4701 55.5845 29.3114 55.5932 28.9792C55.5976 28.8101 55.524 28.6508 55.3724 28.5012C55.2268 28.3518 55.0445 28.2306 54.8255 28.1377C54.6066 28.0447 54.3721 27.9718 54.1222 27.9189L54.1276 27.7091L55.7871 27.7505L55.7817 27.9604L55.5645 28.0249C55.4981 28.0467 55.4643 28.0808 55.4631 28.1274C55.4631 28.1623 55.4915 28.2184 55.5484 28.2957C55.7272 28.5509 55.8126 28.8301 55.8047 29.1331C55.7933 29.5644 55.6828 29.897 55.4733 30.1308C55.2637 30.3647 55.0034 30.4778 54.6925 30.47C54.4653 30.4644 54.2612 30.3718 54.0804 30.1924C53.8997 30.0129 53.7829 29.7883 53.7301 29.5188H53.6763C53.5012 30.2609 53.1087 30.6243 52.4988 30.6091C52.134 30.6001 51.8451 30.4354 51.6321 30.1151C51.4251 29.795 51.3288 29.361 51.3432 28.8132C51.3473 28.6558 51.3723 28.5019 51.4181 28.3514C51.4638 28.2068 51.5301 28.0743 51.617 27.954C51.704 27.8337 51.8172 27.7374 51.9568 27.665L51.9568 27.6637Z" fill="#C1E1FF"/>
<path d="M50.5618 34.5302L50.7702 34.5833L50.6976 34.854C50.684 34.9048 50.684 34.9408 50.6976 34.9621C50.7146 34.9906 50.7492 35.0115 50.8014 35.0247L54.2217 35.8963C54.2738 35.9096 54.3115 35.9071 54.3349 35.8889C54.3626 35.8778 54.3832 35.8469 54.3969 35.7962L54.4696 35.5255L54.6778 35.5785L54.183 37.423L53.9747 37.3699L54.061 37.0484C54.0746 36.9976 54.0728 36.958 54.0558 36.9295C54.043 36.9082 54.0105 36.8909 53.9585 36.8776L50.5382 36.006C50.4861 35.9928 50.4463 35.9916 50.4186 36.0025C50.3953 36.0207 50.3767 36.0552 50.3629 36.1059L50.2767 36.4273L50.0684 36.3743L50.5618 34.5302ZM51.438 31.2644L51.6464 31.3175L51.5601 31.639C51.5465 31.6897 51.5465 31.7258 51.5601 31.7472C51.5771 31.7756 51.6116 31.7965 51.6638 31.8098L55.0841 32.6813C55.1362 32.6945 55.174 32.6921 55.1974 32.6738C55.2251 32.6627 55.2458 32.6319 55.2594 32.5812L55.3456 32.2597L55.5539 32.3128L55.0501 34.1911L54.8417 34.138L54.9189 33.8503C54.9339 33.7939 54.93 33.7507 54.9072 33.7208C54.8844 33.6909 54.8354 33.6663 54.76 33.6471L53.2929 33.2733L53.0978 34.0009C53.0039 34.3506 52.8189 34.6138 52.5428 34.7905C52.2666 34.9671 51.9722 35.0157 51.6597 34.936C51.3472 34.8564 51.112 34.6729 50.9542 34.3857C50.7963 34.0984 50.7643 33.7798 50.8581 33.4301L51.438 31.2644ZM51.3994 32.7912C51.3473 32.7779 51.3074 32.7768 51.2797 32.7876C51.2562 32.8058 51.2377 32.8403 51.2242 32.8909L51.1606 33.1279C51.1122 33.3083 51.1627 33.4659 51.3121 33.6004C51.4615 33.7348 51.6693 33.836 51.9355 33.9038C52.2017 33.9716 52.4309 33.9818 52.6229 33.9343C52.815 33.8869 52.9352 33.7728 52.9836 33.5923L53.0835 33.2201L51.3994 32.7912Z" fill="#C1E1FF"/>
<path d="M49.7525 37.0254L49.9415 37.126L49.778 37.4176C49.7522 37.4637 49.7429 37.4986 49.75 37.5223C49.7595 37.554 49.7878 37.5824 49.8352 37.6075L52.9379 39.2589C52.9851 39.2841 53.0225 39.2906 53.0497 39.2784C53.0793 39.2742 53.1069 39.2491 53.1327 39.2031L53.2962 38.9114L53.4852 39.0121L52.5476 40.6852L52.3586 40.5846L52.4962 40.339C52.522 40.2929 52.5302 40.2541 52.5207 40.2225C52.5134 40.1987 52.4861 40.1743 52.439 40.1491L51.0372 39.4031L50.7663 39.8866C50.7061 39.994 50.7037 40.0957 50.759 40.1916C50.8143 40.2874 50.9103 40.3717 51.0468 40.4444L51.5823 40.7294C51.8448 40.8691 52.0097 41.0432 52.0769 41.2517C52.1412 41.4653 52.1203 41.6667 52.0142 41.8561C51.911 42.0403 51.7741 42.1567 51.6037 42.2055C51.4332 42.2543 51.2562 42.2298 51.0724 42.132C50.9307 42.0565 50.8386 41.9411 50.7962 41.7856C50.7537 41.6302 50.764 41.4962 50.8271 41.3837C50.8902 41.2711 50.9773 41.1946 51.0886 41.1541C51.1998 41.1137 51.3106 41.1229 51.4208 41.1815C51.4891 41.2178 51.5483 41.2825 51.5984 41.3756C51.6332 41.4473 51.6689 41.4929 51.7057 41.5125C51.7529 41.5376 51.7909 41.5246 51.8196 41.4734C51.8597 41.4018 51.8547 41.3194 51.8046 41.2263C51.7545 41.1333 51.6429 41.0406 51.4696 40.9484L50.9263 40.6592C50.8003 40.5921 50.7092 40.5237 50.6529 40.4539C50.5966 40.3841 50.5636 40.2968 50.5541 40.1921L50.5148 40.1712C50.3289 40.4177 50.1198 40.572 49.8872 40.6343C49.6519 40.7016 49.3766 40.6515 49.0616 40.4838L48.5497 40.2114C48.408 40.1359 48.3056 40.1545 48.2426 40.2671C48.1451 40.441 48.3483 40.6621 48.8523 40.9304L48.7405 41.1299C48.394 40.9455 48.1549 40.7518 48.0233 40.5489C47.8916 40.346 47.8988 40.114 48.0451 39.8531C48.1856 39.6024 48.363 39.4377 48.5774 39.3592C48.7918 39.2807 49.0303 39.3113 49.2928 39.451L49.9149 39.7822C50.0671 39.8632 50.2039 39.8928 50.3252 39.871C50.4464 39.8492 50.5357 39.7871 50.5931 39.6848L50.8168 39.2856L49.3363 38.4977C49.289 38.4725 49.2506 38.462 49.221 38.4661C49.1938 38.4782 49.1672 38.5072 49.1414 38.5533L49.0038 38.7989L48.8148 38.6983L49.7525 37.0254Z" fill="#C1E1FF"/>
<path d="M47.4398 42.5171C47.2174 42.3311 47.028 42.2418 46.8716 42.2493C46.7152 42.2569 46.5923 42.3115 46.5028 42.4132C46.3508 42.5858 46.3319 42.8043 46.446 43.0686L47.7942 44.1962L47.9852 43.7106C48.1301 43.3401 47.9483 42.9423 47.4398 42.5171ZM48.0914 41.6562C48.2185 41.7625 48.3152 41.8855 48.3813 42.0253C48.4474 42.1651 48.4879 42.3026 48.5027 42.438C48.5175 42.5733 48.51 42.7206 48.4801 42.8799C48.4547 43.0431 48.4212 43.1841 48.3796 43.303C48.3426 43.4256 48.2938 43.5615 48.2334 43.7108L47.9781 44.3499L48.4412 44.7371C48.6727 44.9308 48.8816 45.0248 49.0678 45.0192C49.254 45.0135 49.4113 44.9377 49.5399 44.7918C49.6451 44.6723 49.7091 44.5415 49.7319 44.3992C49.7592 44.2607 49.7229 44.1497 49.6231 44.0662C49.5414 43.9979 49.4443 43.9782 49.3321 44.0072C49.2367 44.035 49.1527 44.0454 49.08 44.0385C49.0119 44.0351 48.9392 44.0013 48.8621 43.9368C48.7486 43.8419 48.6954 43.7322 48.7026 43.6076C48.7099 43.483 48.7563 43.3721 48.842 43.2748C48.9433 43.1597 49.0695 43.0924 49.2207 43.0729C49.3725 43.0616 49.5233 43.1186 49.6731 43.2439C49.8456 43.3882 49.9532 43.5703 49.9959 43.7904C50.0393 44.0187 50.0245 44.2368 49.9518 44.4449C49.8835 44.6567 49.7793 44.8422 49.6391 45.0015C49.5378 45.1165 49.4291 45.2176 49.3129 45.3048C49.1967 45.3921 49.0646 45.466 48.9166 45.5266C48.7687 45.5872 48.6188 45.6232 48.467 45.6345C48.3152 45.6458 48.1542 45.6227 47.9842 45.565C47.8143 45.5074 47.6499 45.4122 47.491 45.2793L45.7681 43.8385C45.6047 43.7019 45.484 43.6777 45.4061 43.7662C45.336 43.8459 45.3516 43.9626 45.4527 44.1163C45.5538 44.27 45.6929 44.4209 45.87 44.5689L45.7064 44.7548C45.375 44.4776 45.1749 44.2259 45.1062 43.9994C45.0674 43.8824 45.0639 43.7566 45.0957 43.6219C45.1237 43.4917 45.1863 43.3713 45.2837 43.2606C45.4435 43.0792 45.5937 42.9667 45.7345 42.9232C45.8753 42.8796 46.0366 42.8796 46.2182 42.9232L46.2299 42.91C46.1405 42.528 46.2361 42.1778 46.5166 41.8592C46.5945 41.7707 46.6753 41.6924 46.759 41.6241C46.8428 41.5559 46.9379 41.4971 47.0443 41.4478C47.1514 41.4068 47.2597 41.3822 47.3694 41.374C47.4751 41.3702 47.5913 41.3905 47.7178 41.4349C47.8443 41.4792 47.9688 41.5526 48.0914 41.6551L48.0914 41.6562Z" fill="#C1E1FF"/>
<path fill-rule="evenodd" clip-rule="evenodd" d="M26.9134 38.8242C26.6942 38.3087 26.3217 37.6082 26.0644 37.2274C25.1394 35.8586 23.627 34.6901 22.0809 34.1497L21.8008 34.0518L22.1586 33.5329C22.3696 33.2269 22.5491 32.9126 22.5962 32.7669C22.7162 32.395 23.1632 31.8945 23.5313 31.7199C23.6614 31.6582 23.68 31.66 23.8274 31.7488C23.9181 31.8034 24.0362 31.8377 24.1065 31.8298C24.2115 31.818 24.2303 31.7948 24.2417 31.662C24.2524 31.5377 24.2247 31.4726 24.0987 31.3256C23.9563 31.1595 23.9424 31.1196 23.9424 30.8749C23.9424 30.7272 23.9624 30.367 23.9868 30.0744C24.0112 29.7818 24.0504 28.4427 24.074 27.0986C24.1181 24.5786 24.1381 24.2828 24.3152 23.5184C24.4378 22.9891 24.5404 22.2323 24.6028 21.3957C24.6566 20.6757 24.7171 20.2129 24.8102 19.809C24.8569 19.6061 24.8812 19.2657 24.8852 18.7584C24.8907 18.0647 24.8989 17.9925 24.9942 17.8031C25.0509 17.6904 25.1763 17.5323 25.2729 17.4517C25.5262 17.2404 25.7504 17.2052 26.3182 17.2878C26.7207 17.3463 26.8757 17.3478 27.5174 17.3001C28.9082 17.1965 29.6345 17.3573 29.9877 17.8472C30.1 18.0029 30.1216 18.0801 30.1463 18.4133C30.1674 18.6988 30.1958 18.8217 30.2555 18.886C30.3673 19.0065 30.4252 18.9956 30.5925 18.8227C30.6724 18.7402 30.773 18.6726 30.816 18.6726C30.9325 18.6726 31.2286 18.9528 31.3319 19.1606C31.4591 19.4168 31.4483 19.5546 31.2884 19.7104C31.1673 19.8284 31.1337 19.8391 30.9394 19.8209C30.4325 19.7734 29.8714 19.3329 29.5299 18.7145C29.1976 18.1127 29.1289 18.0635 28.9211 18.2791C28.787 18.4182 28.186 18.5871 27.827 18.5866C27.5409 18.5862 26.9389 18.4407 26.6665 18.3062C26.5437 18.2455 26.3904 18.2019 26.3258 18.2091C26.1482 18.2292 26.1429 18.4193 26.3135 18.6509C26.5 18.9041 26.5491 19.1613 26.5124 19.6948L26.4817 20.1411L26.2625 20.1158C25.8267 20.0655 25.773 20.235 26.0573 20.7641C26.2852 21.1885 26.3224 21.4133 26.1866 21.5456C26.1095 21.6207 26.056 21.636 25.9364 21.6171C25.7553 21.5885 25.5933 21.6404 25.5542 21.7395C25.5387 21.7789 25.5641 21.895 25.6106 21.9975C25.7253 22.2504 25.8862 22.2931 26.7144 22.2907C27.4037 22.2887 28.0056 22.2346 28.8704 22.0968C29.9519 21.9245 30.66 21.9858 31.0058 22.2817C31.2012 22.4489 31.249 22.6102 31.2394 23.0702C31.2318 23.4295 31.2413 23.4746 31.3882 23.7757C31.5565 24.1206 31.7027 24.6755 31.6781 24.8753L31.6629 24.9978L31.5707 24.8263C31.52 24.7319 31.4351 24.526 31.382 24.3686C31.2618 24.0123 31.0193 23.7334 30.7024 23.5873C30.5654 23.5241 30.2174 23.436 29.857 23.3731C29.0809 23.2377 28.9807 23.2271 27.9684 23.1742C27.0259 23.1249 26.3633 23.0349 26.0189 22.9093C25.7343 22.8056 25.5833 22.8316 25.5422 22.9913C25.5172 23.0883 25.5387 23.1282 25.6801 23.2473C25.8914 23.4253 26.4085 23.6213 26.8915 23.7063C27.0966 23.7424 27.6703 23.7933 28.1664 23.8195C29.0389 23.8656 29.2387 23.8843 29.9924 23.9902C30.186 24.0174 30.4068 24.0483 30.483 24.0589C30.5906 24.0738 30.6169 24.0954 30.6008 24.1556C30.5894 24.1982 30.6496 24.3569 30.7347 24.5082C30.9918 24.9654 31.2028 25.8646 31.2018 26.4987C31.201 26.9729 31.1843 27.0135 30.9546 27.0989C30.8469 27.139 30.7276 27.2182 30.6895 27.2748C30.6264 27.3688 30.6266 27.3872 30.6926 27.4854C30.7324 27.5446 30.8743 27.6637 31.0078 27.7501C31.2472 27.905 31.2519 27.9061 31.3336 27.8248C31.5426 27.617 31.9777 26.589 31.9319 26.4113C31.9161 26.3499 31.9456 26.2659 32.0159 26.1719C32.1821 25.9495 32.2219 25.8388 32.258 25.4985C32.2764 25.3257 32.3125 25.1638 32.3383 25.1387C32.3641 25.1135 32.4858 25.0835 32.6088 25.072C32.7317 25.0605 32.8449 25.0311 32.8603 25.0068C32.9098 24.9287 32.6982 24.8048 32.5155 24.8048C32.2083 24.8048 32.016 24.4825 31.8843 23.7467C31.768 23.0967 31.8307 22.2663 32.017 21.9891C32.2059 21.7082 32.6531 21.5393 32.7881 21.6979C32.8197 21.7349 32.8603 21.9598 32.8801 22.207C32.9422 22.9826 33.0256 23.21 33.4014 23.6286C33.6079 23.8586 33.6224 23.8899 33.6224 24.1047C33.6224 24.2512 33.6792 24.5059 33.7789 24.8064C34.0722 25.6906 34.1325 26.1645 33.9764 26.3579C33.845 26.5207 33.7122 27.0469 33.6703 27.5708L33.6326 28.0425L33.2066 28.8986C32.7177 29.8813 32.5136 30.1979 32.0039 30.7641C31.2953 31.5512 31.1006 31.8531 31.092 32.1777C31.0892 32.2855 31.0636 32.4153 31.0352 32.4663C31.0068 32.5172 30.8001 32.6886 30.576 32.8471C30.3518 33.0055 30.0496 33.2468 29.9044 33.3833C29.5996 33.6698 29.4537 33.7218 28.9364 33.7285C28.4864 33.7342 28.3748 33.766 28.3255 33.9025C28.2715 34.052 28.3274 34.2432 28.4329 34.2701C28.635 34.3216 28.5839 34.6581 28.2736 35.3202C28.1663 35.5492 28.0784 35.7633 28.0784 35.7959C28.0784 35.9104 27.9027 36.351 27.7092 36.7216C27.4166 37.282 27.275 37.8649 27.3714 38.1121C27.4039 38.1954 27.404 38.2918 27.3718 38.4328C27.294 38.7731 27.1477 39.2134 27.1124 39.2134C27.094 39.2134 27.0045 39.0382 26.9134 38.8242L26.9134 38.8242ZM27.7861 33.1844C28.3921 33.0314 28.7824 32.7463 28.7824 32.4565C28.7824 32.2031 28.7487 32.2088 27.7892 32.6259C27.5939 32.7109 27.3266 32.8 27.1952 32.824C26.9812 32.8632 26.8464 32.9491 26.8464 33.0465C26.8464 33.0656 26.886 33.1198 26.9344 33.1669C27.0455 33.2752 27.398 33.2824 27.7861 33.1844V33.1844ZM28.6055 30.4229C28.6502 30.3996 28.7204 30.2947 28.7615 30.1899C28.8479 29.9694 28.8989 29.9401 29.0986 29.9959C29.419 30.0855 29.4137 30.1781 29.1791 28.5839C29.1541 28.4141 29.0958 28.2471 29.0253 28.1433C28.9629 28.0514 28.8997 27.9139 28.8848 27.8378C28.8478 27.6486 28.7165 27.3981 28.5192 27.1405C28.1416 26.6474 28.0757 26.3513 28.3148 26.2227C28.3902 26.1821 28.4612 26.0946 28.4908 26.0056C28.6259 25.5995 29.1973 25.7425 29.4583 26.2476C29.5766 26.4767 29.5899 26.7051 29.5083 27.1058C29.2745 28.2541 29.7021 29.3758 30.312 29.2142C30.4886 29.1674 30.7211 28.8705 30.8335 28.5482C30.9524 28.2073 30.8771 28.1795 30.5621 28.4482C30.4212 28.5684 30.2571 28.6786 30.1974 28.6932C29.8594 28.7759 29.7489 28.3227 29.9288 27.5922C29.9782 27.3917 30.0304 27.0801 30.0447 26.8996C30.0864 26.376 29.9103 25.0676 29.7883 24.9941C29.7644 24.9797 29.7107 24.9981 29.6689 25.035C29.5457 25.1437 29.1561 25.2037 28.7811 25.1718C28.3195 25.1326 28.0551 25.0587 27.7174 24.8746C27.3653 24.6827 27.1473 24.6672 27.0402 24.8265C26.9312 24.9886 27.0191 25.1413 27.4345 25.5113L27.7904 25.8284L27.6874 26.0563C27.6308 26.1817 27.5646 26.362 27.5403 26.457C27.4421 26.8406 27.7045 27.4357 27.9971 27.4927C28.1601 27.5245 28.2617 27.7166 28.3624 28.1832C28.4964 28.8041 28.4972 29.1149 28.3659 29.6086C28.2245 30.1405 28.2146 30.3309 28.3244 30.4092C28.4186 30.4763 28.4959 30.4801 28.6055 30.4229H28.6055Z" fill="#F5D999"/>
<path fill-rule="evenodd" clip-rule="evenodd" d="M25.689 51.7786C22.9402 51.5158 20.2837 51.0946 19.3429 50.7725C18.7057 50.5544 16.5406 50.0356 15.9952 49.9704C15.7465 49.9407 15.543 49.8571 15.543 49.8571C15.543 49.8571 15.6305 49.3305 15.7375 48.7594C15.8445 48.1882 16.0025 47.2406 16.0886 46.6536C16.3519 44.8589 16.641 44.7659 18.711 45.1417C21.1647 45.5872 23.883 45.8344 28.2668 46.0468C30.5292 46.1565 36.7763 45.6721 39.6549 45.1417C40.9234 44.9081 41.3322 44.9213 41.6111 45.1373C41.9028 45.3631 41.9426 45.495 42.168 46.981C42.2763 47.6952 42.4322 48.6416 42.5145 49.0841C42.5968 49.5267 42.6559 49.897 42.6458 49.907C42.6358 49.917 42.3468 49.9633 42.0037 50.0101C41.3815 50.0948 39.9338 50.4463 38.6664 50.8203C37.7617 51.0873 36.2912 51.3468 34.2619 51.5975C32.7289 51.7869 32.2844 51.8084 29.5035 51.8282C27.8165 51.8402 26.0999 51.8178 25.689 51.7786Z" fill="#F5D999"/>
<path d="M21.4765 46.707L21.4617 46.8487C21.6737 46.8863 21.7019 47.0322 21.6834 47.2113L21.4815 49.1697C21.4632 49.3489 21.4057 49.4863 21.1902 49.482L21.1758 49.6237L23.6938 49.8703C23.8307 49.8837 24.0932 49.9347 24.0605 50.2513C24.0486 50.368 23.9445 50.5388 23.7051 50.5153C23.393 50.4848 23.0293 50.2429 22.5249 50.0673C22.3625 50.0093 22.1816 49.9621 22.0363 49.9479C21.613 49.9064 21.3543 50.0705 21.3311 50.2955C21.3159 50.4413 21.3896 50.5243 21.4836 50.5335C21.5691 50.5417 21.6397 50.4856 21.6483 50.4023C21.656 50.3273 21.6077 50.251 21.5137 50.2418C21.5052 50.2418 21.4922 50.2384 21.4834 50.2418C21.5223 50.1152 21.6976 50.1323 21.7575 50.1382C22.1294 50.1746 22.4064 50.3785 22.8296 50.5462C22.8461 50.552 23.1865 50.6863 23.4687 50.714C23.986 50.7646 24.1845 50.4727 24.2064 50.2601C24.2285 50.0435 24.1287 49.9243 24.0356 49.8226C23.9001 49.6704 23.9258 49.5887 23.9353 49.4971L24.1462 47.4512C24.1652 47.2679 24.2302 47.1396 24.4332 47.1385L24.448 46.9968L23.5758 46.9114L23.5611 47.0531C23.7586 47.1061 23.7975 47.2319 23.7786 47.4153L23.544 49.6903L21.8168 49.5211L22.0513 47.2461C22.0615 47.1461 22.0951 46.9474 22.3383 46.9333L22.3528 46.7916L21.4765 46.707Z" fill="black" stroke="black" stroke-width="0.6" stroke-linecap="round"/>
<path d="M26.6606 47.1314L25.7854 47.0852L25.7776 47.2274C25.9827 47.2549 26.0221 47.3955 26.0119 47.5794L25.9028 49.5448C25.8926 49.7288 25.8377 49.8642 25.6309 49.8701L25.623 50.0123L26.4983 50.0584L26.5061 49.9163C26.301 49.8888 26.2616 49.7482 26.2718 49.5642L26.3234 48.6359L28.0524 48.7271L28.0008 49.6554C27.9889 49.8687 27.9188 49.9698 27.7289 49.9808L27.7208 50.1229L28.6003 50.1694L28.6081 50.0272C28.4288 50.0008 28.3582 49.8798 28.3695 49.6749L28.4787 47.7096C28.4853 47.5883 28.5177 47.3929 28.7549 47.3845L28.7629 47.2423L27.8834 47.1959L27.8756 47.3381C28.0633 47.3689 28.1219 47.4769 28.11 47.6901L28.0614 48.5641L26.3324 48.4729L26.3809 47.5989C26.3922 47.394 26.4631 47.2803 26.6528 47.2735L26.6606 47.1314Z" fill="black" stroke="black" stroke-width="0.6"/>
<path d="M29.8594 47.2333L29.8678 47.3754C30.0707 47.385 30.1344 47.5155 30.1454 47.6995L30.2623 49.6644C30.2732 49.8483 30.2255 49.9853 30.0251 50.0176L30.0336 50.1597L30.9129 50.11L30.9045 49.9678C30.7016 49.9582 30.6424 49.8317 30.6312 49.6435L30.6249 49.5348L32.2529 47.8907H32.2659L32.3645 49.5463C32.3751 49.726 32.3321 49.8711 32.1273 49.8995L32.1358 50.0416L33.0151 49.9919L33.0067 49.8497C32.7907 49.8367 32.7447 49.7135 32.7335 49.5254L32.6164 47.5605C32.6055 47.3766 32.6403 47.2404 32.8493 47.2076L32.8409 47.0654L31.9615 47.1152L31.97 47.2573C32.1123 47.2618 32.2344 47.3598 32.2426 47.4977L32.2507 47.6315L30.6224 49.2715H30.6094L30.5146 47.6787C30.5036 47.4947 30.5385 47.3585 30.7475 47.3257L30.739 47.1836L29.8594 47.2333Z" fill="black" stroke="black" stroke-width="0.6"/>
<path d="M34.1582 46.9822L34.1733 47.1238C34.3764 47.1238 34.4461 47.2522 34.4654 47.4355L34.6722 49.3933C34.6916 49.5766 34.65 49.7155 34.4513 49.7565L34.4665 49.8981L35.3427 49.8102L35.3276 49.6686C35.1245 49.6686 35.0595 49.5439 35.0397 49.3565L35.0285 49.2482L36.5797 47.535H36.5924L36.7666 49.1846C36.7856 49.3637 36.7489 49.5105 36.5457 49.5478L36.5609 49.6893L37.4371 49.6015L37.4223 49.4599C37.2059 49.4564 37.1543 49.3352 37.1345 49.1477L36.9277 47.1899C36.9083 47.0066 36.9369 46.869 37.1443 46.8272L37.1291 46.6855L36.2529 46.7734L36.2681 46.915C36.4105 46.915 36.5368 47.006 36.5514 47.1434L36.5655 47.2767L35.0138 48.9858H35.0012L34.8336 47.3987C34.8142 47.2154 34.8427 47.0778 35.0501 47.0359L35.0349 46.8943L34.1582 46.9822Z" fill="black" stroke="black" stroke-width="0.6"/>
</svg>
