<svg width="21" height="20" viewBox="0 0 21 20" fill="none" xmlns="http://www.w3.org/2000/svg">
<path fill-rule="evenodd" clip-rule="evenodd" d="M14.8257 12.8985L20.2057 18.2783C20.3948 18.4676 20.501 18.7242 20.5009 18.9917C20.5008 19.2592 20.3945 19.5157 20.2052 19.7048C20.016 19.8939 19.7594 20.0001 19.4919 20C19.2244 19.9999 18.9678 19.8935 18.7787 19.7043L13.3987 14.3244C11.7905 15.5701 9.76802 16.1563 7.74287 15.9638C5.71772 15.7712 3.84198 14.8145 2.49723 13.2881C1.15248 11.7617 0.439735 9.78035 0.503996 7.74712C0.568258 5.7139 1.4047 3.78152 2.84315 2.3431C4.2816 0.904675 6.21402 0.0682562 8.24729 0.00399624C10.2806 -0.0602638 12.2619 0.652463 13.7884 1.99718C15.3148 3.3419 16.2716 5.21761 16.4641 7.24271C16.6566 9.26782 16.0704 11.2902 14.8247 12.8985H14.8257ZM8.50074 13.9994C10.092 13.9994 11.6182 13.3673 12.7434 12.2421C13.8686 11.1169 14.5007 9.59084 14.5007 7.99957C14.5007 6.40831 13.8686 4.88222 12.7434 3.75702C11.6182 2.63183 10.092 1.9997 8.50074 1.9997C6.90944 1.9997 5.38332 2.63183 4.2581 3.75702C3.13289 4.88222 2.50074 6.40831 2.50074 7.99957C2.50074 9.59084 3.13289 11.1169 4.2581 12.2421C5.38332 13.3673 6.90944 13.9994 8.50074 13.9994Z" fill="#728796"/>
</svg>
