<svg width="66" height="60" viewBox="0 0 66 60" fill="none" xmlns="http://www.w3.org/2000/svg">
<g filter="url(#filter0_dd_1052_2538)">
<rect x="8" y="11" width="50" height="38" rx="5" fill="#212328" shape-rendering="crispEdges"/>
<g clip-path="url(#clip0_1052_2538)">
<path d="M33.0549 26.1111C30.8882 26.1111 29.166 27.8333 29.166 30C29.166 32.1666 30.8882 33.8889 33.0549 33.8889C35.2216 33.8889 36.9438 32.1666 36.9438 30C36.9438 27.8333 35.2216 26.1111 33.0549 26.1111ZM33.0549 32.7778C31.4993 32.7778 30.2771 31.5555 30.2771 30C30.2771 28.4444 31.4993 27.2222 33.0549 27.2222C34.6105 27.2222 35.8327 28.4444 35.8327 30C35.8327 31.5555 34.6105 32.7778 33.0549 32.7778Z" fill="#DDDDDD"/>
<path d="M41.2224 28.1666L39.6669 27.6666L39.3336 26.8333L40.1113 25.3889C40.278 25.0555 40.2224 24.6111 39.9447 24.3333L38.6113 23C38.3336 22.7222 37.8891 22.6666 37.5558 22.8333L36.1113 23.6111L35.278 23.2778L34.778 21.7222C34.6669 21.3889 34.3336 21.1111 33.9447 21.1111H32.0558C31.6669 21.1111 31.3336 21.3889 31.278 21.7778L30.778 23.3333C30.4447 23.3889 30.1669 23.5 29.8891 23.6666L28.4447 22.8889C28.1113 22.7222 27.6669 22.7778 27.3891 23.0555L26.0558 24.3889C25.778 24.6666 25.7224 25.1111 25.8891 25.4444L26.6113 26.8333C26.5002 27.1111 26.3891 27.4444 26.278 27.7222L24.7224 28.2222C24.3891 28.3333 24.1113 28.6666 24.1113 29.0555V30.9444C24.1113 31.3333 24.3891 31.6666 24.778 31.7778L26.3336 32.2778L26.6669 33.1111L25.8891 34.5555C25.7224 34.8889 25.778 35.3333 26.0558 35.6111L27.3891 36.9444C27.6669 37.2222 28.1113 37.2778 28.4447 37.1111L29.8891 36.3333L30.7224 36.6666L31.2224 38.2778C31.3336 38.6111 31.6669 38.8889 32.0558 38.8889H33.9447C34.3336 38.8889 34.6669 38.6111 34.778 38.2778L35.278 36.6666L36.1113 36.3333L37.5558 37.1111C37.8891 37.2778 38.3336 37.2222 38.6113 36.9444L39.9447 35.6111C40.2224 35.3333 40.278 34.8889 40.1113 34.5555L39.3336 33.1111L39.6669 32.2778L41.278 31.7778C41.6113 31.6666 41.8891 31.3333 41.8891 30.9444V29.0555C41.8891 28.6666 41.6113 28.2778 41.2224 28.1666ZM40.778 30.7778L38.778 31.3889L38.7224 31.6666L38.2224 32.8333L38.0558 33.1111L39.0558 34.9444L37.9447 36.0555L36.1113 35.0555L35.8336 35.2222C35.4447 35.4444 35.0558 35.6111 34.6669 35.7222L34.3891 35.7778L33.778 37.7778H32.2224L31.6113 35.7778L31.3336 35.7222L30.1669 35.2222L29.8891 35.0555L28.0558 36.0555L26.9447 34.9444L27.9447 33.1111L27.778 32.8333C27.5558 32.4444 27.3891 32.0555 27.278 31.6666L27.2224 31.3889L25.2224 30.7778V29.2222L27.1113 28.6666L27.2224 28.3889C27.3336 27.9444 27.5002 27.5555 27.7224 27.1666L27.8891 26.8889L26.9447 25.0555L28.0558 23.9444L29.8336 24.9444L30.1113 24.7778C30.5002 24.5555 30.8891 24.3889 31.3336 24.2778L31.6113 24.1666L32.2224 22.2222H33.778L34.3891 24.1666L34.6669 24.2778C35.0558 24.3889 35.4447 24.5555 35.8336 24.7778L36.1113 24.9444L37.9447 23.9444L39.0558 25.0555L38.0558 26.8889L38.2224 27.1666C38.4447 27.5555 38.6113 27.9444 38.7224 28.3333L38.778 28.6111L40.778 29.2222V30.7778Z" fill="#DDDDDD"/>
</g>
</g>
<defs>
<filter id="filter0_dd_1052_2538" x="0" y="0" width="66" height="60" filterUnits="userSpaceOnUse" color-interpolation-filters="sRGB">
<feFlood flood-opacity="0" result="BackgroundImageFix"/>
<feColorMatrix in="SourceAlpha" type="matrix" values="0 0 0 0 0 0 0 0 0 0 0 0 0 0 0 0 0 0 127 0" result="hardAlpha"/>
<feOffset dy="3"/>
<feGaussianBlur stdDeviation="4"/>
<feComposite in2="hardAlpha" operator="out"/>
<feColorMatrix type="matrix" values="0 0 0 0 0 0 0 0 0 0 0 0 0 0 0 0 0 0 0.05 0"/>
<feBlend mode="normal" in2="BackgroundImageFix" result="effect1_dropShadow_1052_2538"/>
<feColorMatrix in="SourceAlpha" type="matrix" values="0 0 0 0 0 0 0 0 0 0 0 0 0 0 0 0 0 0 127 0" result="hardAlpha"/>
<feOffset dy="-3"/>
<feGaussianBlur stdDeviation="4"/>
<feComposite in2="hardAlpha" operator="out"/>
<feColorMatrix type="matrix" values="0 0 0 0 0 0 0 0 0 0 0 0 0 0 0 0 0 0 0.03 0"/>
<feBlend mode="normal" in2="effect1_dropShadow_1052_2538" result="effect2_dropShadow_1052_2538"/>
<feBlend mode="normal" in="SourceGraphic" in2="effect2_dropShadow_1052_2538" result="shape"/>
</filter>
<clipPath id="clip0_1052_2538">
<rect width="20" height="20" fill="white" transform="translate(23 20)"/>
</clipPath>
</defs>
</svg>
